<?xml version="1.0" encoding="utf-8"?>
<svg xmlns="http://www.w3.org/2000/svg" xmlns:xlink="http://www.w3.org/1999/xlink" width="600" height="400" viewBox="0 0 2400 1600">
<defs>
  <clipPath id="clip550">
    <rect x="0" y="0" width="2400" height="1600"/>
  </clipPath>
</defs>
<path clip-path="url(#clip550)" d="
M0 1600 L2400 1600 L2400 0 L0 0  Z
  " fill="#ffffff" fill-rule="evenodd" fill-opacity="1"/>
<defs>
  <clipPath id="clip551">
    <rect x="480" y="0" width="1681" height="1600"/>
  </clipPath>
</defs>
<path clip-path="url(#clip550)" d="
M244.451 1410.9 L2352.76 1410.9 L2352.76 47.2441 L244.451 47.2441  Z
  " fill="#ffffff" fill-rule="evenodd" fill-opacity="1"/>
<defs>
  <clipPath id="clip552">
    <rect x="244" y="47" width="2109" height="1365"/>
  </clipPath>
</defs>
<polyline clip-path="url(#clip552)" style="stroke:#000000; stroke-linecap:butt; stroke-linejoin:round; stroke-width:2; stroke-opacity:0.1; fill:none" points="
  1047.15,1410.9 1047.15,47.2441 
  "/>
<polyline clip-path="url(#clip552)" style="stroke:#000000; stroke-linecap:butt; stroke-linejoin:round; stroke-width:2; stroke-opacity:0.1; fill:none" points="
  1873.05,1410.9 1873.05,47.2441 
  "/>
<polyline clip-path="url(#clip550)" style="stroke:#000000; stroke-linecap:butt; stroke-linejoin:round; stroke-width:4; stroke-opacity:1; fill:none" points="
  244.451,1410.9 2352.76,1410.9 
  "/>
<polyline clip-path="url(#clip550)" style="stroke:#000000; stroke-linecap:butt; stroke-linejoin:round; stroke-width:4; stroke-opacity:1; fill:none" points="
  1047.15,1410.9 1047.15,1392 
  "/>
<polyline clip-path="url(#clip550)" style="stroke:#000000; stroke-linecap:butt; stroke-linejoin:round; stroke-width:4; stroke-opacity:1; fill:none" points="
  1873.05,1410.9 1873.05,1392 
  "/>
<path clip-path="url(#clip550)" d="M1012.59 1485.02 L1020.23 1485.02 L1020.23 1458.66 L1011.92 1460.32 L1011.92 1456.06 L1020.18 1454.4 L1024.86 1454.4 L1024.86 1485.02 L1032.5 1485.02 L1032.5 1488.96 L1012.59 1488.96 L1012.59 1485.02 Z" fill="#000000" fill-rule="evenodd" fill-opacity="1" /><path clip-path="url(#clip550)" d="M1051.94 1457.48 Q1048.33 1457.48 1046.5 1461.04 Q1044.7 1464.58 1044.7 1471.71 Q1044.7 1478.82 1046.5 1482.38 Q1048.33 1485.92 1051.94 1485.92 Q1055.58 1485.92 1057.38 1482.38 Q1059.21 1478.82 1059.21 1471.71 Q1059.21 1464.58 1057.38 1461.04 Q1055.58 1457.48 1051.94 1457.48 M1051.94 1453.77 Q1057.75 1453.77 1060.81 1458.38 Q1063.89 1462.96 1063.89 1471.71 Q1063.89 1480.44 1060.81 1485.04 Q1057.75 1489.63 1051.94 1489.63 Q1046.13 1489.63 1043.05 1485.04 Q1040 1480.44 1040 1471.71 Q1040 1462.96 1043.05 1458.38 Q1046.13 1453.77 1051.94 1453.77 Z" fill="#000000" fill-rule="evenodd" fill-opacity="1" /><path clip-path="url(#clip550)" d="M1076.58 1446.41 Q1079.31 1446.99 1080.83 1448.83 Q1082.37 1450.68 1082.37 1453.38 Q1082.37 1457.54 1079.52 1459.82 Q1076.66 1462.09 1071.39 1462.09 Q1069.62 1462.09 1067.74 1461.73 Q1065.88 1461.4 1063.89 1460.7 L1063.89 1457.03 Q1065.47 1457.95 1067.35 1458.42 Q1069.23 1458.89 1071.28 1458.89 Q1074.85 1458.89 1076.71 1457.48 Q1078.59 1456.07 1078.59 1453.38 Q1078.59 1450.9 1076.85 1449.51 Q1075.11 1448.1 1072.01 1448.1 L1068.74 1448.1 L1068.74 1444.98 L1072.16 1444.98 Q1074.96 1444.98 1076.45 1443.87 Q1077.94 1442.74 1077.94 1440.63 Q1077.94 1438.47 1076.39 1437.32 Q1074.87 1436.16 1072.01 1436.16 Q1070.45 1436.16 1068.66 1436.49 Q1066.88 1436.83 1064.73 1437.55 L1064.73 1434.16 Q1066.9 1433.56 1068.78 1433.26 Q1070.68 1432.96 1072.35 1432.96 Q1076.68 1432.96 1079.2 1434.93 Q1081.72 1436.89 1081.72 1440.24 Q1081.72 1442.57 1080.38 1444.19 Q1079.05 1445.79 1076.58 1446.41 Z" fill="#000000" fill-rule="evenodd" fill-opacity="1" /><path clip-path="url(#clip550)" d="M1838.04 1485.02 L1845.68 1485.02 L1845.68 1458.66 L1837.37 1460.32 L1837.37 1456.06 L1845.63 1454.4 L1850.31 1454.4 L1850.31 1485.02 L1857.95 1485.02 L1857.95 1488.96 L1838.04 1488.96 L1838.04 1485.02 Z" fill="#000000" fill-rule="evenodd" fill-opacity="1" /><path clip-path="url(#clip550)" d="M1877.39 1457.48 Q1873.78 1457.48 1871.95 1461.04 Q1870.15 1464.58 1870.15 1471.71 Q1870.15 1478.82 1871.95 1482.38 Q1873.78 1485.92 1877.39 1485.92 Q1881.03 1485.92 1882.83 1482.38 Q1884.66 1478.82 1884.66 1471.71 Q1884.66 1464.58 1882.83 1461.04 Q1881.03 1457.48 1877.39 1457.48 M1877.39 1453.77 Q1883.2 1453.77 1886.26 1458.38 Q1889.34 1462.96 1889.34 1471.71 Q1889.34 1480.44 1886.26 1485.04 Q1883.2 1489.63 1877.39 1489.63 Q1871.58 1489.63 1868.5 1485.04 Q1865.45 1480.44 1865.45 1471.71 Q1865.45 1462.96 1868.5 1458.38 Q1871.58 1453.77 1877.39 1453.77 Z" fill="#000000" fill-rule="evenodd" fill-opacity="1" /><path clip-path="url(#clip550)" d="M1899.36 1445.99 Q1896.8 1445.99 1895.3 1447.74 Q1893.81 1449.49 1893.81 1452.54 Q1893.81 1455.57 1895.3 1457.33 Q1896.8 1459.08 1899.36 1459.08 Q1901.92 1459.08 1903.4 1457.33 Q1904.91 1455.57 1904.91 1452.54 Q1904.91 1449.49 1903.4 1447.74 Q1901.92 1445.99 1899.36 1445.99 M1906.9 1434.09 L1906.9 1437.55 Q1905.47 1436.87 1904.01 1436.51 Q1902.56 1436.16 1901.13 1436.16 Q1897.37 1436.16 1895.37 1438.69 Q1893.4 1441.23 1893.12 1446.37 Q1894.23 1444.73 1895.9 1443.87 Q1897.57 1442.98 1899.59 1442.98 Q1903.82 1442.98 1906.26 1445.56 Q1908.73 1448.12 1908.73 1452.54 Q1908.73 1456.86 1906.17 1459.48 Q1903.61 1462.09 1899.36 1462.09 Q1894.49 1462.09 1891.91 1458.37 Q1889.34 1454.62 1889.34 1447.53 Q1889.34 1440.88 1892.5 1436.93 Q1895.66 1432.96 1900.98 1432.96 Q1902.41 1432.96 1903.86 1433.24 Q1905.32 1433.52 1906.9 1434.09 Z" fill="#000000" fill-rule="evenodd" fill-opacity="1" /><path clip-path="url(#clip550)" d="M958.913 1526.67 L968.494 1526.67 L980.62 1559 L992.811 1526.67 L1002.39 1526.67 L1002.39 1574.19 L996.121 1574.19 L996.121 1532.46 L983.867 1565.05 L977.406 1565.05 L965.152 1532.46 L965.152 1574.19 L958.913 1574.19 L958.913 1526.67 Z" fill="#000000" fill-rule="evenodd" fill-opacity="1" /><path clip-path="url(#clip550)" d="M1045.39 1554.9 L1045.39 1557.76 L1018.46 1557.76 Q1018.85 1563.81 1022.09 1566.99 Q1025.37 1570.14 1031.2 1570.14 Q1034.57 1570.14 1037.72 1569.32 Q1040.9 1568.49 1044.02 1566.83 L1044.02 1572.37 Q1040.87 1573.71 1037.56 1574.41 Q1034.25 1575.11 1030.85 1575.11 Q1022.32 1575.11 1017.32 1570.14 Q1012.35 1565.18 1012.35 1556.71 Q1012.35 1547.96 1017.06 1542.83 Q1021.81 1537.68 1029.83 1537.68 Q1037.02 1537.68 1041.19 1542.33 Q1045.39 1546.94 1045.39 1554.9 M1039.54 1553.18 Q1039.47 1548.37 1036.83 1545.51 Q1034.22 1542.64 1029.89 1542.64 Q1024.99 1542.64 1022.03 1545.41 Q1019.1 1548.18 1018.66 1553.21 L1039.54 1553.18 Z" fill="#000000" fill-rule="evenodd" fill-opacity="1" /><path clip-path="url(#clip550)" d="M1077.73 1539.59 L1077.73 1545.13 Q1075.25 1543.85 1072.57 1543.22 Q1069.9 1542.58 1067.03 1542.58 Q1062.67 1542.58 1060.48 1543.92 Q1058.31 1545.25 1058.31 1547.93 Q1058.31 1549.96 1059.87 1551.14 Q1061.43 1552.29 1066.14 1553.34 L1068.15 1553.78 Q1074.39 1555.12 1077 1557.57 Q1079.64 1559.99 1079.64 1564.35 Q1079.64 1569.32 1075.69 1572.21 Q1071.78 1575.11 1064.9 1575.11 Q1062.04 1575.11 1058.92 1574.54 Q1055.83 1573.99 1052.39 1572.88 L1052.39 1566.83 Q1055.64 1568.52 1058.79 1569.38 Q1061.94 1570.21 1065.03 1570.21 Q1069.17 1570.21 1071.4 1568.81 Q1073.62 1567.37 1073.62 1564.8 Q1073.62 1562.41 1072 1561.14 Q1070.41 1559.86 1064.97 1558.68 L1062.93 1558.21 Q1057.49 1557.06 1055.07 1554.71 Q1052.65 1552.32 1052.65 1548.18 Q1052.65 1543.15 1056.21 1540.42 Q1059.78 1537.68 1066.33 1537.68 Q1069.58 1537.68 1072.45 1538.16 Q1075.31 1538.63 1077.73 1539.59 Z" fill="#000000" fill-rule="evenodd" fill-opacity="1" /><path clip-path="url(#clip550)" d="M1111.69 1539.59 L1111.69 1545.13 Q1109.21 1543.85 1106.53 1543.22 Q1103.86 1542.58 1101 1542.58 Q1096.64 1542.58 1094.44 1543.92 Q1092.27 1545.25 1092.27 1547.93 Q1092.27 1549.96 1093.83 1551.14 Q1095.39 1552.29 1100.1 1553.34 L1102.11 1553.78 Q1108.35 1555.12 1110.96 1557.57 Q1113.6 1559.99 1113.6 1564.35 Q1113.6 1569.32 1109.65 1572.21 Q1105.74 1575.11 1098.86 1575.11 Q1096 1575.11 1092.88 1574.54 Q1089.79 1573.99 1086.35 1572.88 L1086.35 1566.83 Q1089.6 1568.52 1092.75 1569.38 Q1095.9 1570.21 1098.99 1570.21 Q1103.13 1570.21 1105.36 1568.81 Q1107.58 1567.37 1107.58 1564.8 Q1107.58 1562.41 1105.96 1561.14 Q1104.37 1559.86 1098.93 1558.68 L1096.89 1558.21 Q1091.45 1557.06 1089.03 1554.71 Q1086.61 1552.32 1086.61 1548.18 Q1086.61 1543.15 1090.17 1540.42 Q1093.74 1537.68 1100.3 1537.68 Q1103.54 1537.68 1106.41 1538.16 Q1109.27 1538.63 1111.69 1539.59 Z" fill="#000000" fill-rule="evenodd" fill-opacity="1" /><path clip-path="url(#clip550)" d="M1139.13 1556.27 Q1132.03 1556.27 1129.29 1557.89 Q1126.55 1559.51 1126.55 1563.43 Q1126.55 1566.55 1128.59 1568.39 Q1130.66 1570.21 1134.19 1570.21 Q1139.06 1570.21 1141.99 1566.77 Q1144.95 1563.3 1144.95 1557.57 L1144.95 1556.27 L1139.13 1556.27 M1150.81 1553.85 L1150.81 1574.19 L1144.95 1574.19 L1144.95 1568.77 Q1142.95 1572.02 1139.95 1573.58 Q1136.96 1575.11 1132.63 1575.11 Q1127.16 1575.11 1123.91 1572.05 Q1120.7 1568.97 1120.7 1563.81 Q1120.7 1557.79 1124.71 1554.74 Q1128.75 1551.68 1136.74 1551.68 L1144.95 1551.68 L1144.95 1551.11 Q1144.95 1547.07 1142.28 1544.87 Q1139.64 1542.64 1134.83 1542.64 Q1131.77 1542.64 1128.88 1543.38 Q1125.98 1544.11 1123.31 1545.57 L1123.31 1540.16 Q1126.52 1538.92 1129.55 1538.31 Q1132.57 1537.68 1135.43 1537.68 Q1143.17 1537.68 1146.99 1541.69 Q1150.81 1545.7 1150.81 1553.85 Z" fill="#000000" fill-rule="evenodd" fill-opacity="1" /><path clip-path="url(#clip550)" d="M1186.33 1555.95 Q1186.33 1549.58 1183.69 1546.08 Q1181.08 1542.58 1176.33 1542.58 Q1171.62 1542.58 1168.98 1546.08 Q1166.37 1549.58 1166.37 1555.95 Q1166.37 1562.28 1168.98 1565.78 Q1171.62 1569.28 1176.33 1569.28 Q1181.08 1569.28 1183.69 1565.78 Q1186.33 1562.28 1186.33 1555.95 M1192.18 1569.76 Q1192.18 1578.86 1188.14 1583.29 Q1184.1 1587.74 1175.76 1587.74 Q1172.67 1587.74 1169.94 1587.27 Q1167.2 1586.82 1164.62 1585.87 L1164.62 1580.17 Q1167.2 1581.57 1169.71 1582.24 Q1172.23 1582.91 1174.84 1582.91 Q1180.6 1582.91 1183.46 1579.88 Q1186.33 1576.89 1186.33 1570.81 L1186.33 1567.92 Q1184.51 1571.07 1181.68 1572.63 Q1178.85 1574.19 1174.9 1574.19 Q1168.35 1574.19 1164.33 1569.19 Q1160.32 1564.19 1160.32 1555.95 Q1160.32 1547.67 1164.33 1542.68 Q1168.35 1537.68 1174.9 1537.68 Q1178.85 1537.68 1181.68 1539.24 Q1184.51 1540.8 1186.33 1543.95 L1186.33 1538.54 L1192.18 1538.54 L1192.18 1569.76 Z" fill="#000000" fill-rule="evenodd" fill-opacity="1" /><path clip-path="url(#clip550)" d="M1234.74 1554.9 L1234.74 1557.76 L1207.81 1557.76 Q1208.19 1563.81 1211.44 1566.99 Q1214.72 1570.14 1220.54 1570.14 Q1223.92 1570.14 1227.07 1569.32 Q1230.25 1568.49 1233.37 1566.83 L1233.37 1572.37 Q1230.22 1573.71 1226.91 1574.41 Q1223.6 1575.11 1220.19 1575.11 Q1211.66 1575.11 1206.67 1570.14 Q1201.7 1565.18 1201.7 1556.71 Q1201.7 1547.96 1206.41 1542.83 Q1211.15 1537.68 1219.18 1537.68 Q1226.37 1537.68 1230.54 1542.33 Q1234.74 1546.94 1234.74 1554.9 M1228.88 1553.18 Q1228.82 1548.37 1226.18 1545.51 Q1223.57 1542.64 1219.24 1542.64 Q1214.34 1542.64 1211.38 1545.41 Q1208.45 1548.18 1208 1553.21 L1228.88 1553.18 Z" fill="#000000" fill-rule="evenodd" fill-opacity="1" /><path clip-path="url(#clip550)" d="M1293.81 1528.23 L1293.81 1534.5 Q1290.15 1532.74 1286.91 1531.89 Q1283.66 1531.03 1280.64 1531.03 Q1275.38 1531.03 1272.52 1533.06 Q1269.69 1535.1 1269.69 1538.86 Q1269.69 1542.01 1271.57 1543.63 Q1273.47 1545.22 1278.76 1546.21 L1282.64 1547 Q1289.83 1548.37 1293.24 1551.84 Q1296.68 1555.28 1296.68 1561.07 Q1296.68 1567.98 1292.03 1571.54 Q1287.42 1575.11 1278.47 1575.11 Q1275.1 1575.11 1271.28 1574.34 Q1267.49 1573.58 1263.42 1572.08 L1263.42 1565.46 Q1267.33 1567.66 1271.09 1568.77 Q1274.84 1569.89 1278.47 1569.89 Q1283.98 1569.89 1286.97 1567.72 Q1289.96 1565.56 1289.96 1561.55 Q1289.96 1558.05 1287.8 1556.08 Q1285.67 1554.1 1280.76 1553.11 L1276.85 1552.35 Q1269.66 1550.92 1266.44 1547.86 Q1263.23 1544.81 1263.23 1539.37 Q1263.23 1533.06 1267.65 1529.43 Q1272.11 1525.81 1279.9 1525.81 Q1283.25 1525.81 1286.72 1526.41 Q1290.18 1527.02 1293.81 1528.23 Z" fill="#000000" fill-rule="evenodd" fill-opacity="1" /><path clip-path="url(#clip550)" d="M1306.45 1538.54 L1312.31 1538.54 L1312.31 1574.19 L1306.45 1574.19 L1306.45 1538.54 M1306.45 1524.66 L1312.31 1524.66 L1312.31 1532.08 L1306.45 1532.08 L1306.45 1524.66 Z" fill="#000000" fill-rule="evenodd" fill-opacity="1" /><path clip-path="url(#clip550)" d="M1322.01 1538.54 L1349.83 1538.54 L1349.83 1543.88 L1327.81 1569.51 L1349.83 1569.51 L1349.83 1574.19 L1321.22 1574.19 L1321.22 1568.84 L1343.24 1543.22 L1322.01 1543.22 L1322.01 1538.54 Z" fill="#000000" fill-rule="evenodd" fill-opacity="1" /><path clip-path="url(#clip550)" d="M1389.27 1554.9 L1389.27 1557.76 L1362.34 1557.76 Q1362.72 1563.81 1365.97 1566.99 Q1369.25 1570.14 1375.07 1570.14 Q1378.45 1570.14 1381.6 1569.32 Q1384.78 1568.49 1387.9 1566.83 L1387.9 1572.37 Q1384.75 1573.71 1381.44 1574.41 Q1378.13 1575.11 1374.72 1575.11 Q1366.19 1575.11 1361.19 1570.14 Q1356.23 1565.18 1356.23 1556.71 Q1356.23 1547.96 1360.94 1542.83 Q1365.68 1537.68 1373.7 1537.68 Q1380.9 1537.68 1385.07 1542.33 Q1389.27 1546.94 1389.27 1554.9 M1383.41 1553.18 Q1383.35 1548.37 1380.71 1545.51 Q1378.1 1542.64 1373.77 1542.64 Q1368.86 1542.64 1365.9 1545.41 Q1362.98 1548.18 1362.53 1553.21 L1383.41 1553.18 Z" fill="#000000" fill-rule="evenodd" fill-opacity="1" /><path clip-path="url(#clip550)" d="M1433.67 1524.72 Q1429.4 1532.04 1427.33 1539.21 Q1425.27 1546.37 1425.27 1553.72 Q1425.27 1561.07 1427.33 1568.3 Q1429.43 1575.49 1433.67 1582.78 L1428.58 1582.78 Q1423.8 1575.3 1421.41 1568.07 Q1419.06 1560.85 1419.06 1553.72 Q1419.06 1546.62 1421.41 1539.43 Q1423.77 1532.24 1428.58 1524.72 L1433.67 1524.72 Z" fill="#000000" fill-rule="evenodd" fill-opacity="1" /><path clip-path="url(#clip550)" d="M1470.62 1556.39 Q1470.62 1549.93 1467.95 1546.27 Q1465.31 1542.58 1460.66 1542.58 Q1456.01 1542.58 1453.34 1546.27 Q1450.7 1549.93 1450.7 1556.39 Q1450.7 1562.85 1453.34 1566.55 Q1456.01 1570.21 1460.66 1570.21 Q1465.31 1570.21 1467.95 1566.55 Q1470.62 1562.85 1470.62 1556.39 M1450.7 1543.95 Q1452.54 1540.77 1455.34 1539.24 Q1458.18 1537.68 1462.09 1537.68 Q1468.58 1537.68 1472.63 1542.83 Q1476.7 1547.99 1476.7 1556.39 Q1476.7 1564.8 1472.63 1569.95 Q1468.58 1575.11 1462.09 1575.11 Q1458.18 1575.11 1455.34 1573.58 Q1452.54 1572.02 1450.7 1568.84 L1450.7 1574.19 L1444.81 1574.19 L1444.81 1524.66 L1450.7 1524.66 L1450.7 1543.95 Z" fill="#000000" fill-rule="evenodd" fill-opacity="1" /><path clip-path="url(#clip550)" d="M1501.24 1577.5 Q1498.76 1583.86 1496.4 1585.8 Q1494.05 1587.74 1490.1 1587.74 L1485.42 1587.74 L1485.42 1582.84 L1488.86 1582.84 Q1491.28 1582.84 1492.61 1581.7 Q1493.95 1580.55 1495.57 1576.29 L1496.62 1573.61 L1482.21 1538.54 L1488.41 1538.54 L1499.55 1566.42 L1510.69 1538.54 L1516.9 1538.54 L1501.24 1577.5 Z" fill="#000000" fill-rule="evenodd" fill-opacity="1" /><path clip-path="url(#clip550)" d="M1530.78 1528.42 L1530.78 1538.54 L1542.84 1538.54 L1542.84 1543.09 L1530.78 1543.09 L1530.78 1562.44 Q1530.78 1566.8 1531.95 1568.04 Q1533.16 1569.28 1536.82 1569.28 L1542.84 1569.28 L1542.84 1574.19 L1536.82 1574.19 Q1530.04 1574.19 1527.47 1571.67 Q1524.89 1569.12 1524.89 1562.44 L1524.89 1543.09 L1520.59 1543.09 L1520.59 1538.54 L1524.89 1538.54 L1524.89 1528.42 L1530.78 1528.42 Z" fill="#000000" fill-rule="evenodd" fill-opacity="1" /><path clip-path="url(#clip550)" d="M1581.03 1554.9 L1581.03 1557.76 L1554.11 1557.76 Q1554.49 1563.81 1557.74 1566.99 Q1561.01 1570.14 1566.84 1570.14 Q1570.21 1570.14 1573.36 1569.32 Q1576.55 1568.49 1579.67 1566.83 L1579.67 1572.37 Q1576.51 1573.71 1573.2 1574.41 Q1569.89 1575.11 1566.49 1575.11 Q1557.96 1575.11 1552.96 1570.14 Q1548 1565.18 1548 1556.71 Q1548 1547.96 1552.71 1542.83 Q1557.45 1537.68 1565.47 1537.68 Q1572.66 1537.68 1576.83 1542.33 Q1581.03 1546.94 1581.03 1554.9 M1575.18 1553.18 Q1575.11 1548.37 1572.47 1545.51 Q1569.86 1542.64 1565.53 1542.64 Q1560.63 1542.64 1557.67 1545.41 Q1554.74 1548.18 1554.3 1553.21 L1575.18 1553.18 Z" fill="#000000" fill-rule="evenodd" fill-opacity="1" /><path clip-path="url(#clip550)" d="M1613.37 1539.59 L1613.37 1545.13 Q1610.89 1543.85 1608.22 1543.22 Q1605.54 1542.58 1602.68 1542.58 Q1598.32 1542.58 1596.12 1543.92 Q1593.96 1545.25 1593.96 1547.93 Q1593.96 1549.96 1595.52 1551.14 Q1597.08 1552.29 1601.79 1553.34 L1603.79 1553.78 Q1610.03 1555.12 1612.64 1557.57 Q1615.28 1559.99 1615.28 1564.35 Q1615.28 1569.32 1611.33 1572.21 Q1607.42 1575.11 1600.54 1575.11 Q1597.68 1575.11 1594.56 1574.54 Q1591.47 1573.99 1588.04 1572.88 L1588.04 1566.83 Q1591.28 1568.52 1594.43 1569.38 Q1597.58 1570.21 1600.67 1570.21 Q1604.81 1570.21 1607.04 1568.81 Q1609.27 1567.37 1609.27 1564.8 Q1609.27 1562.41 1607.64 1561.14 Q1606.05 1559.86 1600.61 1558.68 L1598.57 1558.21 Q1593.13 1557.06 1590.71 1554.71 Q1588.29 1552.32 1588.29 1548.18 Q1588.29 1543.15 1591.86 1540.42 Q1595.42 1537.68 1601.98 1537.68 Q1605.22 1537.68 1608.09 1538.16 Q1610.95 1538.63 1613.37 1539.59 Z" fill="#000000" fill-rule="evenodd" fill-opacity="1" /><path clip-path="url(#clip550)" d="M1623.68 1524.72 L1628.78 1524.72 Q1633.55 1532.24 1635.91 1539.43 Q1638.29 1546.62 1638.29 1553.72 Q1638.29 1560.85 1635.91 1568.07 Q1633.55 1575.3 1628.78 1582.78 L1623.68 1582.78 Q1627.92 1575.49 1629.99 1568.3 Q1632.09 1561.07 1632.09 1553.72 Q1632.09 1546.37 1629.99 1539.21 Q1627.92 1532.04 1623.68 1524.72 Z" fill="#000000" fill-rule="evenodd" fill-opacity="1" /><polyline clip-path="url(#clip552)" style="stroke:#000000; stroke-linecap:butt; stroke-linejoin:round; stroke-width:2; stroke-opacity:0.1; fill:none" points="
  244.451,766.596 2352.76,766.596 
  "/>
<polyline clip-path="url(#clip552)" style="stroke:#000000; stroke-linecap:butt; stroke-linejoin:round; stroke-width:2; stroke-opacity:0.1; fill:none" points="
  244.451,52.0091 2352.76,52.0091 
  "/>
<polyline clip-path="url(#clip550)" style="stroke:#000000; stroke-linecap:butt; stroke-linejoin:round; stroke-width:4; stroke-opacity:1; fill:none" points="
  244.451,1410.9 244.451,47.2441 
  "/>
<polyline clip-path="url(#clip550)" style="stroke:#000000; stroke-linecap:butt; stroke-linejoin:round; stroke-width:4; stroke-opacity:1; fill:none" points="
  244.451,766.596 263.349,766.596 
  "/>
<polyline clip-path="url(#clip550)" style="stroke:#000000; stroke-linecap:butt; stroke-linejoin:round; stroke-width:4; stroke-opacity:1; fill:none" points="
  244.451,52.0091 263.349,52.0091 
  "/>
<path clip-path="url(#clip550)" d="M137.896 786.389 L145.535 786.389 L145.535 760.023 L137.224 761.69 L137.224 757.431 L145.488 755.764 L150.164 755.764 L150.164 786.389 L157.803 786.389 L157.803 790.324 L137.896 790.324 L137.896 786.389 Z" fill="#000000" fill-rule="evenodd" fill-opacity="1" /><path clip-path="url(#clip550)" d="M177.247 758.843 Q173.636 758.843 171.808 762.407 Q170.002 765.949 170.002 773.079 Q170.002 780.185 171.808 783.75 Q173.636 787.291 177.247 787.291 Q180.882 787.291 182.687 783.75 Q184.516 780.185 184.516 773.079 Q184.516 765.949 182.687 762.407 Q180.882 758.843 177.247 758.843 M177.247 755.139 Q183.058 755.139 186.113 759.745 Q189.192 764.329 189.192 773.079 Q189.192 781.805 186.113 786.412 Q183.058 790.995 177.247 790.995 Q171.437 790.995 168.359 786.412 Q165.303 781.805 165.303 773.079 Q165.303 764.329 168.359 759.745 Q171.437 755.139 177.247 755.139 Z" fill="#000000" fill-rule="evenodd" fill-opacity="1" /><path clip-path="url(#clip550)" d="M198.821 749.579 Q196.113 749.579 194.552 751.027 Q193.01 752.475 193.01 755.014 Q193.01 757.553 194.552 759.001 Q196.113 760.45 198.821 760.45 Q201.53 760.45 203.091 759.001 Q204.652 757.534 204.652 755.014 Q204.652 752.475 203.091 751.027 Q201.548 749.579 198.821 749.579 M195.022 747.961 Q192.577 747.359 191.204 745.686 Q189.85 744.012 189.85 741.604 Q189.85 738.238 192.239 736.282 Q194.646 734.326 198.821 734.326 Q203.015 734.326 205.404 736.282 Q207.793 738.238 207.793 741.604 Q207.793 744.012 206.42 745.686 Q205.066 747.359 202.639 747.961 Q205.385 748.601 206.909 750.463 Q208.451 752.325 208.451 755.014 Q208.451 759.095 205.949 761.277 Q203.467 763.459 198.821 763.459 Q194.176 763.459 191.674 761.277 Q189.192 759.095 189.192 755.014 Q189.192 752.325 190.734 750.463 Q192.276 748.601 195.022 747.961 M193.63 741.962 Q193.63 744.143 194.985 745.366 Q196.358 746.588 198.821 746.588 Q201.266 746.588 202.639 745.366 Q204.031 744.143 204.031 741.962 Q204.031 739.78 202.639 738.557 Q201.266 737.335 198.821 737.335 Q196.358 737.335 194.985 738.557 Q193.63 739.78 193.63 741.962 Z" fill="#000000" fill-rule="evenodd" fill-opacity="1" /><path clip-path="url(#clip550)" d="M114.931 71.8016 L122.57 71.8016 L122.57 45.436 L114.26 47.1026 L114.26 42.8434 L122.524 41.1767 L127.2 41.1767 L127.2 71.8016 L134.839 71.8016 L134.839 75.7367 L114.931 75.7367 L114.931 71.8016 Z" fill="#000000" fill-rule="evenodd" fill-opacity="1" /><path clip-path="url(#clip550)" d="M154.283 44.2554 Q150.672 44.2554 148.843 47.8202 Q147.038 51.3619 147.038 58.4914 Q147.038 65.5979 148.843 69.1627 Q150.672 72.7043 154.283 72.7043 Q157.917 72.7043 159.723 69.1627 Q161.552 65.5979 161.552 58.4914 Q161.552 51.3619 159.723 47.8202 Q157.917 44.2554 154.283 44.2554 M154.283 40.5517 Q160.093 40.5517 163.149 45.1582 Q166.227 49.7415 166.227 58.4914 Q166.227 67.2182 163.149 71.8247 Q160.093 76.408 154.283 76.408 Q148.473 76.408 145.394 71.8247 Q142.339 67.2182 142.339 58.4914 Q142.339 49.7415 145.394 45.1582 Q148.473 40.5517 154.283 40.5517 Z" fill="#000000" fill-rule="evenodd" fill-opacity="1" /><path clip-path="url(#clip550)" d="M166.773 45.129 L172.979 45.129 L172.979 23.7069 L166.227 25.0611 L166.227 21.6005 L172.942 20.2463 L176.741 20.2463 L176.741 45.129 L182.948 45.129 L182.948 48.3263 L166.773 48.3263 L166.773 45.129 Z" fill="#000000" fill-rule="evenodd" fill-opacity="1" /><path clip-path="url(#clip550)" d="M198.746 22.7478 Q195.812 22.7478 194.326 25.6441 Q192.859 28.5217 192.859 34.3145 Q192.859 40.0885 194.326 42.9849 Q195.812 45.8625 198.746 45.8625 Q201.699 45.8625 203.166 42.9849 Q204.652 40.0885 204.652 34.3145 Q204.652 28.5217 203.166 25.6441 Q201.699 22.7478 198.746 22.7478 M198.746 19.7385 Q203.467 19.7385 205.949 23.4813 Q208.451 27.2052 208.451 34.3145 Q208.451 41.4051 205.949 45.1478 Q203.467 48.8717 198.746 48.8717 Q194.025 48.8717 191.524 45.1478 Q189.041 41.4051 189.041 34.3145 Q189.041 27.2052 191.524 23.4813 Q194.025 19.7385 198.746 19.7385 Z" fill="#000000" fill-rule="evenodd" fill-opacity="1" /><path clip-path="url(#clip550)" d="M41.3104 1043.7 L58.7206 1043.7 L58.7206 1033.38 Q58.7206 1028.19 56.5881 1025.71 Q54.4238 1023.2 49.9996 1023.2 Q45.5436 1023.2 43.4429 1025.71 Q41.3104 1028.19 41.3104 1033.38 L41.3104 1043.7 M21.7677 1043.7 L36.0905 1043.7 L36.0905 1034.18 Q36.0905 1029.47 34.34 1027.18 Q32.5576 1024.85 28.9291 1024.85 Q25.3325 1024.85 23.5501 1027.18 Q21.7677 1029.47 21.7677 1034.18 L21.7677 1043.7 M16.4842 1050.12 L16.4842 1033.7 Q16.4842 1026.35 19.5397 1022.37 Q22.5952 1018.39 28.2289 1018.39 Q32.5894 1018.39 35.1675 1020.43 Q37.7456 1022.47 38.3822 1026.41 Q39.4007 1021.67 42.6472 1019.06 Q45.8619 1016.42 50.6998 1016.42 Q57.0655 1016.42 60.5348 1020.75 Q64.0042 1025.08 64.0042 1033.06 L64.0042 1050.12 L16.4842 1050.12 Z" fill="#000000" fill-rule="evenodd" fill-opacity="1" /><path clip-path="url(#clip550)" d="M46.0847 989.46 Q46.0847 996.557 47.7079 999.295 Q49.3312 1002.03 53.2461 1002.03 Q56.3653 1002.03 58.2114 999.995 Q60.0256 997.926 60.0256 994.393 Q60.0256 989.523 56.5881 986.595 Q53.1188 983.635 47.3897 983.635 L46.0847 983.635 L46.0847 989.46 M43.6657 977.779 L64.0042 977.779 L64.0042 983.635 L58.5933 983.635 Q61.8398 985.64 63.3994 988.632 Q64.9272 991.624 64.9272 995.953 Q64.9272 1001.43 61.8716 1004.67 Q58.7843 1007.89 53.6281 1007.89 Q47.6125 1007.89 44.5569 1003.88 Q41.5014 999.836 41.5014 991.847 L41.5014 983.635 L40.9285 983.635 Q36.8862 983.635 34.6901 986.309 Q32.4621 988.95 32.4621 993.756 Q32.4621 996.812 33.1941 999.708 Q33.9262 1002.6 35.3903 1005.28 L29.9795 1005.28 Q28.7381 1002.06 28.1334 999.04 Q27.4968 996.016 27.4968 993.152 Q27.4968 985.417 31.5072 981.598 Q35.5176 977.779 43.6657 977.779 Z" fill="#000000" fill-rule="evenodd" fill-opacity="1" /><path clip-path="url(#clip550)" d="M42.4881 936.083 L64.0042 936.083 L64.0042 941.94 L42.679 941.94 Q37.6183 941.94 35.1038 943.913 Q32.5894 945.886 32.5894 949.833 Q32.5894 954.576 35.6131 957.313 Q38.6368 960.05 43.8567 960.05 L64.0042 960.05 L64.0042 965.938 L28.3562 965.938 L28.3562 960.05 L33.8944 960.05 Q30.6797 957.949 29.0883 955.117 Q27.4968 952.252 27.4968 948.528 Q27.4968 942.385 31.3163 939.234 Q35.1038 936.083 42.4881 936.083 Z" fill="#000000" fill-rule="evenodd" fill-opacity="1" /><path clip-path="url(#clip550)" d="M33.7671 900.944 L14.479 900.944 L14.479 895.088 L64.0042 895.088 L64.0042 900.944 L58.657 900.944 Q61.8398 902.791 63.3994 905.623 Q64.9272 908.424 64.9272 912.371 Q64.9272 918.832 59.771 922.906 Q54.6147 926.948 46.212 926.948 Q37.8093 926.948 32.6531 922.906 Q27.4968 918.832 27.4968 912.371 Q27.4968 908.424 29.0564 905.623 Q30.5842 902.791 33.7671 900.944 M46.212 920.901 Q52.6732 920.901 56.3653 918.259 Q60.0256 915.586 60.0256 910.939 Q60.0256 906.292 56.3653 903.618 Q52.6732 900.944 46.212 900.944 Q39.7508 900.944 36.0905 903.618 Q32.3984 906.292 32.3984 910.939 Q32.3984 915.586 36.0905 918.259 Q39.7508 920.901 46.212 920.901 Z" fill="#000000" fill-rule="evenodd" fill-opacity="1" /><path clip-path="url(#clip550)" d="M28.3562 886.431 L28.3562 880.574 L56.1743 873.254 L28.3562 865.965 L28.3562 859.058 L56.1743 851.738 L28.3562 844.449 L28.3562 838.592 L64.0042 847.918 L64.0042 854.825 L34.7856 862.496 L64.0042 870.198 L64.0042 877.105 L28.3562 886.431 Z" fill="#000000" fill-rule="evenodd" fill-opacity="1" /><path clip-path="url(#clip550)" d="M28.3562 829.712 L28.3562 823.856 L64.0042 823.856 L64.0042 829.712 L28.3562 829.712 M14.479 829.712 L14.479 823.856 L21.895 823.856 L21.895 829.712 L14.479 829.712 Z" fill="#000000" fill-rule="evenodd" fill-opacity="1" /><path clip-path="url(#clip550)" d="M33.7671 788.144 L14.479 788.144 L14.479 782.288 L64.0042 782.288 L64.0042 788.144 L58.657 788.144 Q61.8398 789.99 63.3994 792.823 Q64.9272 795.624 64.9272 799.571 Q64.9272 806.032 59.771 810.106 Q54.6147 814.148 46.212 814.148 Q37.8093 814.148 32.6531 810.106 Q27.4968 806.032 27.4968 799.571 Q27.4968 795.624 29.0564 792.823 Q30.5842 789.99 33.7671 788.144 M46.212 808.101 Q52.6732 808.101 56.3653 805.459 Q60.0256 802.785 60.0256 798.138 Q60.0256 793.491 56.3653 790.818 Q52.6732 788.144 46.212 788.144 Q39.7508 788.144 36.0905 790.818 Q32.3984 793.491 32.3984 798.138 Q32.3984 802.785 36.0905 805.459 Q39.7508 808.101 46.212 808.101 Z" fill="#000000" fill-rule="evenodd" fill-opacity="1" /><path clip-path="url(#clip550)" d="M18.2347 764.432 L28.3562 764.432 L28.3562 752.369 L32.9077 752.369 L32.9077 764.432 L52.2594 764.432 Q56.6199 764.432 57.8613 763.254 Q59.1026 762.045 59.1026 758.384 L59.1026 752.369 L64.0042 752.369 L64.0042 758.384 Q64.0042 765.164 61.4897 767.742 Q58.9434 770.32 52.2594 770.32 L32.9077 770.32 L32.9077 774.617 L28.3562 774.617 L28.3562 770.32 L18.2347 770.32 L18.2347 764.432 Z" fill="#000000" fill-rule="evenodd" fill-opacity="1" /><path clip-path="url(#clip550)" d="M42.4881 715.034 L64.0042 715.034 L64.0042 720.89 L42.679 720.89 Q37.6183 720.89 35.1038 722.864 Q32.5894 724.837 32.5894 728.784 Q32.5894 733.526 35.6131 736.264 Q38.6368 739.001 43.8567 739.001 L64.0042 739.001 L64.0042 744.889 L14.479 744.889 L14.479 739.001 L33.8944 739.001 Q30.6797 736.9 29.0883 734.067 Q27.4968 731.203 27.4968 727.479 Q27.4968 721.336 31.3163 718.185 Q35.1038 715.034 42.4881 715.034 Z" fill="#000000" fill-rule="evenodd" fill-opacity="1" /><path clip-path="url(#clip550)" d="M14.5426 668.564 Q21.8632 672.829 29.0246 674.898 Q36.186 676.967 43.5384 676.967 Q50.8908 676.967 58.1159 674.898 Q65.3091 672.798 72.5979 668.564 L72.5979 673.657 Q65.1182 678.431 57.8931 680.818 Q50.668 683.174 43.5384 683.174 Q36.4406 683.174 29.2474 680.818 Q22.0542 678.463 14.5426 673.657 L14.5426 668.564 Z" fill="#000000" fill-rule="evenodd" fill-opacity="1" /><path clip-path="url(#clip550)" d="M46.212 631.611 Q39.7508 631.611 36.0905 634.285 Q32.3984 636.927 32.3984 641.574 Q32.3984 646.221 36.0905 648.894 Q39.7508 651.536 46.212 651.536 Q52.6732 651.536 56.3653 648.894 Q60.0256 646.221 60.0256 641.574 Q60.0256 636.927 56.3653 634.285 Q52.6732 631.611 46.212 631.611 M33.7671 651.536 Q30.5842 649.69 29.0564 646.889 Q27.4968 644.056 27.4968 640.141 Q27.4968 633.648 32.6531 629.606 Q37.8093 625.532 46.212 625.532 Q54.6147 625.532 59.771 629.606 Q64.9272 633.648 64.9272 640.141 Q64.9272 644.056 63.3994 646.889 Q61.8398 649.69 58.657 651.536 L64.0042 651.536 L64.0042 657.424 L14.479 657.424 L14.479 651.536 L33.7671 651.536 Z" fill="#000000" fill-rule="evenodd" fill-opacity="1" /><path clip-path="url(#clip550)" d="M67.3143 600.992 Q73.68 603.475 75.6216 605.83 Q77.5631 608.186 77.5631 612.132 L77.5631 616.811 L72.6615 616.811 L72.6615 613.374 Q72.6615 610.955 71.5157 609.618 Q70.3699 608.281 66.1048 606.658 L63.4312 605.607 L28.3562 620.026 L28.3562 613.819 L56.238 602.679 L28.3562 591.539 L28.3562 585.333 L67.3143 600.992 Z" fill="#000000" fill-rule="evenodd" fill-opacity="1" /><path clip-path="url(#clip550)" d="M18.2347 571.455 L28.3562 571.455 L28.3562 559.392 L32.9077 559.392 L32.9077 571.455 L52.2594 571.455 Q56.6199 571.455 57.8613 570.278 Q59.1026 569.068 59.1026 565.408 L59.1026 559.392 L64.0042 559.392 L64.0042 565.408 Q64.0042 572.188 61.4897 574.766 Q58.9434 577.344 52.2594 577.344 L32.9077 577.344 L32.9077 581.641 L28.3562 581.641 L28.3562 577.344 L18.2347 577.344 L18.2347 571.455 Z" fill="#000000" fill-rule="evenodd" fill-opacity="1" /><path clip-path="url(#clip550)" d="M44.7161 521.198 L47.5806 521.198 L47.5806 548.125 Q53.6281 547.743 56.8109 544.497 Q59.9619 541.218 59.9619 535.394 Q59.9619 532.02 59.1344 528.869 Q58.3069 525.686 56.6518 522.567 L62.1899 522.567 Q63.5267 525.718 64.227 529.028 Q64.9272 532.338 64.9272 535.744 Q64.9272 544.274 59.9619 549.271 Q54.9967 554.236 46.5303 554.236 Q37.7774 554.236 32.6531 549.526 Q27.4968 544.783 27.4968 536.762 Q27.4968 529.569 32.1438 525.4 Q36.7589 521.198 44.7161 521.198 M42.9973 527.055 Q38.1912 527.118 35.3266 529.76 Q32.4621 532.37 32.4621 536.699 Q32.4621 541.6 35.2312 544.56 Q38.0002 547.489 43.0292 547.934 L42.9973 527.055 Z" fill="#000000" fill-rule="evenodd" fill-opacity="1" /><path clip-path="url(#clip550)" d="M29.4065 488.86 L34.9447 488.86 Q33.6716 491.343 33.035 494.017 Q32.3984 496.69 32.3984 499.555 Q32.3984 503.915 33.7352 506.111 Q35.072 508.276 37.7456 508.276 Q39.7826 508.276 40.9603 506.716 Q42.1061 505.157 43.1565 500.446 L43.6021 498.441 Q44.9389 492.202 47.3897 489.592 Q49.8086 486.951 54.1691 486.951 Q59.1344 486.951 62.0308 490.897 Q64.9272 494.812 64.9272 501.687 Q64.9272 504.552 64.3543 507.671 Q63.8132 510.758 62.6992 514.196 L56.6518 514.196 Q58.3387 510.949 59.198 507.798 Q60.0256 504.647 60.0256 501.56 Q60.0256 497.422 58.6251 495.194 Q57.1929 492.966 54.6147 492.966 Q52.2276 492.966 50.9545 494.59 Q49.6813 496.181 48.5037 501.624 L48.0262 503.661 Q46.8804 509.103 44.5251 511.522 Q42.138 513.941 38.0002 513.941 Q32.9713 513.941 30.2341 510.377 Q27.4968 506.812 27.4968 500.255 Q27.4968 497.009 27.9743 494.144 Q28.4517 491.279 29.4065 488.86 Z" fill="#000000" fill-rule="evenodd" fill-opacity="1" /><path clip-path="url(#clip550)" d="M16.4842 467.217 L16.4842 461.806 L70.0516 478.357 L70.0516 483.768 L16.4842 467.217 Z" fill="#000000" fill-rule="evenodd" fill-opacity="1" /><path clip-path="url(#clip550)" d="M29.4065 432.938 L34.9447 432.938 Q33.6716 435.42 33.035 438.094 Q32.3984 440.768 32.3984 443.632 Q32.3984 447.993 33.7352 450.189 Q35.072 452.353 37.7456 452.353 Q39.7826 452.353 40.9603 450.794 Q42.1061 449.234 43.1565 444.523 L43.6021 442.518 Q44.9389 436.28 47.3897 433.67 Q49.8086 431.028 54.1691 431.028 Q59.1344 431.028 62.0308 434.975 Q64.9272 438.89 64.9272 445.765 Q64.9272 448.629 64.3543 451.748 Q63.8132 454.836 62.6992 458.273 L56.6518 458.273 Q58.3387 455.027 59.198 451.876 Q60.0256 448.725 60.0256 445.637 Q60.0256 441.5 58.6251 439.272 Q57.1929 437.044 54.6147 437.044 Q52.2276 437.044 50.9545 438.667 Q49.6813 440.258 48.5037 445.701 L48.0262 447.738 Q46.8804 453.181 44.5251 455.6 Q42.138 458.019 38.0002 458.019 Q32.9713 458.019 30.2341 454.454 Q27.4968 450.889 27.4968 444.332 Q27.4968 441.086 27.9743 438.221 Q28.4517 435.357 29.4065 432.938 Z" fill="#000000" fill-rule="evenodd" fill-opacity="1" /><path clip-path="url(#clip550)" d="M14.5426 422.625 L14.5426 417.533 Q22.0542 412.758 29.2474 410.403 Q36.4406 408.016 43.5384 408.016 Q50.668 408.016 57.8931 410.403 Q65.1182 412.758 72.5979 417.533 L72.5979 422.625 Q65.3091 418.392 58.1159 416.323 Q50.8908 414.223 43.5384 414.223 Q36.186 414.223 29.0246 416.323 Q21.8632 418.392 14.5426 422.625 Z" fill="#000000" fill-rule="evenodd" fill-opacity="1" /><circle clip-path="url(#clip552)" cx="304.12" cy="1371.12" r="14" fill="#009af9" fill-rule="evenodd" fill-opacity="1" stroke="#000000" stroke-opacity="1" stroke-width="3.2"/>
<circle clip-path="url(#clip552)" cx="386.994" cy="1254.98" r="14" fill="#009af9" fill-rule="evenodd" fill-opacity="1" stroke="#000000" stroke-opacity="1" stroke-width="3.2"/>
<circle clip-path="url(#clip552)" cx="469.867" cy="1160.6" r="14" fill="#009af9" fill-rule="evenodd" fill-opacity="1" stroke="#000000" stroke-opacity="1" stroke-width="3.2"/>
<circle clip-path="url(#clip552)" cx="552.741" cy="1027.01" r="14" fill="#009af9" fill-rule="evenodd" fill-opacity="1" stroke="#000000" stroke-opacity="1" stroke-width="3.2"/>
<circle clip-path="url(#clip552)" cx="635.614" cy="918.549" r="14" fill="#009af9" fill-rule="evenodd" fill-opacity="1" stroke="#000000" stroke-opacity="1" stroke-width="3.2"/>
<circle clip-path="url(#clip552)" cx="718.488" cy="811.539" r="14" fill="#009af9" fill-rule="evenodd" fill-opacity="1" stroke="#000000" stroke-opacity="1" stroke-width="3.2"/>
<circle clip-path="url(#clip552)" cx="801.362" cy="722.682" r="14" fill="#009af9" fill-rule="evenodd" fill-opacity="1" stroke="#000000" stroke-opacity="1" stroke-width="3.2"/>
<circle clip-path="url(#clip552)" cx="884.235" cy="600.546" r="14" fill="#009af9" fill-rule="evenodd" fill-opacity="1" stroke="#000000" stroke-opacity="1" stroke-width="3.2"/>
<circle clip-path="url(#clip552)" cx="967.109" cy="503.577" r="14" fill="#009af9" fill-rule="evenodd" fill-opacity="1" stroke="#000000" stroke-opacity="1" stroke-width="3.2"/>
<circle clip-path="url(#clip552)" cx="1049.98" cy="406.782" r="14" fill="#009af9" fill-rule="evenodd" fill-opacity="1" stroke="#000000" stroke-opacity="1" stroke-width="3.2"/>
<circle clip-path="url(#clip552)" cx="1132.86" cy="320.896" r="14" fill="#009af9" fill-rule="evenodd" fill-opacity="1" stroke="#000000" stroke-opacity="1" stroke-width="3.2"/>
<circle clip-path="url(#clip552)" cx="1215.73" cy="225.26" r="14" fill="#009af9" fill-rule="evenodd" fill-opacity="1" stroke="#000000" stroke-opacity="1" stroke-width="3.2"/>
<circle clip-path="url(#clip552)" cx="1298.6" cy="168.812" r="14" fill="#009af9" fill-rule="evenodd" fill-opacity="1" stroke="#000000" stroke-opacity="1" stroke-width="3.2"/>
<circle clip-path="url(#clip552)" cx="1381.48" cy="161.738" r="14" fill="#009af9" fill-rule="evenodd" fill-opacity="1" stroke="#000000" stroke-opacity="1" stroke-width="3.2"/>
<circle clip-path="url(#clip552)" cx="1464.35" cy="132.355" r="14" fill="#009af9" fill-rule="evenodd" fill-opacity="1" stroke="#000000" stroke-opacity="1" stroke-width="3.2"/>
<circle clip-path="url(#clip552)" cx="1547.22" cy="189.005" r="14" fill="#009af9" fill-rule="evenodd" fill-opacity="1" stroke="#000000" stroke-opacity="1" stroke-width="3.2"/>
<circle clip-path="url(#clip552)" cx="1630.1" cy="142.736" r="14" fill="#009af9" fill-rule="evenodd" fill-opacity="1" stroke="#000000" stroke-opacity="1" stroke-width="3.2"/>
<circle clip-path="url(#clip552)" cx="1712.97" cy="95.1589" r="14" fill="#009af9" fill-rule="evenodd" fill-opacity="1" stroke="#000000" stroke-opacity="1" stroke-width="3.2"/>
<circle clip-path="url(#clip552)" cx="1795.85" cy="85.838" r="14" fill="#009af9" fill-rule="evenodd" fill-opacity="1" stroke="#000000" stroke-opacity="1" stroke-width="3.2"/>
<circle clip-path="url(#clip552)" cx="1878.72" cy="113.902" r="14" fill="#009af9" fill-rule="evenodd" fill-opacity="1" stroke="#000000" stroke-opacity="1" stroke-width="3.2"/>
<circle clip-path="url(#clip552)" cx="1961.59" cy="188.393" r="14" fill="#009af9" fill-rule="evenodd" fill-opacity="1" stroke="#000000" stroke-opacity="1" stroke-width="3.2"/>
<circle clip-path="url(#clip552)" cx="2044.47" cy="229.88" r="14" fill="#009af9" fill-rule="evenodd" fill-opacity="1" stroke="#000000" stroke-opacity="1" stroke-width="3.2"/>
<circle clip-path="url(#clip552)" cx="2127.34" cy="248.805" r="14" fill="#009af9" fill-rule="evenodd" fill-opacity="1" stroke="#000000" stroke-opacity="1" stroke-width="3.2"/>
<circle clip-path="url(#clip552)" cx="2210.21" cy="255.552" r="14" fill="#009af9" fill-rule="evenodd" fill-opacity="1" stroke="#000000" stroke-opacity="1" stroke-width="3.2"/>
<circle clip-path="url(#clip552)" cx="2293.09" cy="264.251" r="14" fill="#009af9" fill-rule="evenodd" fill-opacity="1" stroke="#000000" stroke-opacity="1" stroke-width="3.2"/>
<circle clip-path="url(#clip552)" cx="304.12" cy="1367.29" r="14" fill="#e26f46" fill-rule="evenodd" fill-opacity="1" stroke="#000000" stroke-opacity="1" stroke-width="3.2"/>
<circle clip-path="url(#clip552)" cx="386.994" cy="1250.67" r="14" fill="#e26f46" fill-rule="evenodd" fill-opacity="1" stroke="#000000" stroke-opacity="1" stroke-width="3.2"/>
<circle clip-path="url(#clip552)" cx="469.867" cy="1169.09" r="14" fill="#e26f46" fill-rule="evenodd" fill-opacity="1" stroke="#000000" stroke-opacity="1" stroke-width="3.2"/>
<circle clip-path="url(#clip552)" cx="552.741" cy="1025.28" r="14" fill="#e26f46" fill-rule="evenodd" fill-opacity="1" stroke="#000000" stroke-opacity="1" stroke-width="3.2"/>
<circle clip-path="url(#clip552)" cx="635.614" cy="913.74" r="14" fill="#e26f46" fill-rule="evenodd" fill-opacity="1" stroke="#000000" stroke-opacity="1" stroke-width="3.2"/>
<circle clip-path="url(#clip552)" cx="718.488" cy="806.747" r="14" fill="#e26f46" fill-rule="evenodd" fill-opacity="1" stroke="#000000" stroke-opacity="1" stroke-width="3.2"/>
<circle clip-path="url(#clip552)" cx="801.362" cy="724.283" r="14" fill="#e26f46" fill-rule="evenodd" fill-opacity="1" stroke="#000000" stroke-opacity="1" stroke-width="3.2"/>
<circle clip-path="url(#clip552)" cx="884.235" cy="595.242" r="14" fill="#e26f46" fill-rule="evenodd" fill-opacity="1" stroke="#000000" stroke-opacity="1" stroke-width="3.2"/>
<circle clip-path="url(#clip552)" cx="967.109" cy="500.661" r="14" fill="#e26f46" fill-rule="evenodd" fill-opacity="1" stroke="#000000" stroke-opacity="1" stroke-width="3.2"/>
<circle clip-path="url(#clip552)" cx="1049.98" cy="402.488" r="14" fill="#e26f46" fill-rule="evenodd" fill-opacity="1" stroke="#000000" stroke-opacity="1" stroke-width="3.2"/>
<circle clip-path="url(#clip552)" cx="1132.86" cy="317.921" r="14" fill="#e26f46" fill-rule="evenodd" fill-opacity="1" stroke="#000000" stroke-opacity="1" stroke-width="3.2"/>
<circle clip-path="url(#clip552)" cx="1215.73" cy="224.389" r="14" fill="#e26f46" fill-rule="evenodd" fill-opacity="1" stroke="#000000" stroke-opacity="1" stroke-width="3.2"/>
<circle clip-path="url(#clip552)" cx="1298.6" cy="168.544" r="14" fill="#e26f46" fill-rule="evenodd" fill-opacity="1" stroke="#000000" stroke-opacity="1" stroke-width="3.2"/>
<circle clip-path="url(#clip552)" cx="1381.48" cy="157.285" r="14" fill="#e26f46" fill-rule="evenodd" fill-opacity="1" stroke="#000000" stroke-opacity="1" stroke-width="3.2"/>
<circle clip-path="url(#clip552)" cx="1464.35" cy="135.206" r="14" fill="#e26f46" fill-rule="evenodd" fill-opacity="1" stroke="#000000" stroke-opacity="1" stroke-width="3.2"/>
<circle clip-path="url(#clip552)" cx="1547.22" cy="186.646" r="14" fill="#e26f46" fill-rule="evenodd" fill-opacity="1" stroke="#000000" stroke-opacity="1" stroke-width="3.2"/>
<circle clip-path="url(#clip552)" cx="1630.1" cy="141.314" r="14" fill="#e26f46" fill-rule="evenodd" fill-opacity="1" stroke="#000000" stroke-opacity="1" stroke-width="3.2"/>
<circle clip-path="url(#clip552)" cx="1712.97" cy="93.5889" r="14" fill="#e26f46" fill-rule="evenodd" fill-opacity="1" stroke="#000000" stroke-opacity="1" stroke-width="3.2"/>
<circle clip-path="url(#clip552)" cx="1795.85" cy="87.6304" r="14" fill="#e26f46" fill-rule="evenodd" fill-opacity="1" stroke="#000000" stroke-opacity="1" stroke-width="3.2"/>
<circle clip-path="url(#clip552)" cx="1878.72" cy="113.075" r="14" fill="#e26f46" fill-rule="evenodd" fill-opacity="1" stroke="#000000" stroke-opacity="1" stroke-width="3.2"/>
<circle clip-path="url(#clip552)" cx="1961.59" cy="188.296" r="14" fill="#e26f46" fill-rule="evenodd" fill-opacity="1" stroke="#000000" stroke-opacity="1" stroke-width="3.2"/>
<circle clip-path="url(#clip552)" cx="2044.47" cy="229.529" r="14" fill="#e26f46" fill-rule="evenodd" fill-opacity="1" stroke="#000000" stroke-opacity="1" stroke-width="3.2"/>
<circle clip-path="url(#clip552)" cx="2127.34" cy="248.803" r="14" fill="#e26f46" fill-rule="evenodd" fill-opacity="1" stroke="#000000" stroke-opacity="1" stroke-width="3.2"/>
<circle clip-path="url(#clip552)" cx="2210.21" cy="255.41" r="14" fill="#e26f46" fill-rule="evenodd" fill-opacity="1" stroke="#000000" stroke-opacity="1" stroke-width="3.2"/>
<circle clip-path="url(#clip552)" cx="2293.09" cy="264.337" r="14" fill="#e26f46" fill-rule="evenodd" fill-opacity="1" stroke="#000000" stroke-opacity="1" stroke-width="3.2"/>
<circle clip-path="url(#clip552)" cx="304.12" cy="1366.65" r="14" fill="#3da44d" fill-rule="evenodd" fill-opacity="1" stroke="#000000" stroke-opacity="1" stroke-width="3.2"/>
<circle clip-path="url(#clip552)" cx="386.994" cy="1253.64" r="14" fill="#3da44d" fill-rule="evenodd" fill-opacity="1" stroke="#000000" stroke-opacity="1" stroke-width="3.2"/>
<circle clip-path="url(#clip552)" cx="469.867" cy="1156.09" r="14" fill="#3da44d" fill-rule="evenodd" fill-opacity="1" stroke="#000000" stroke-opacity="1" stroke-width="3.2"/>
<circle clip-path="url(#clip552)" cx="552.741" cy="1028.72" r="14" fill="#3da44d" fill-rule="evenodd" fill-opacity="1" stroke="#000000" stroke-opacity="1" stroke-width="3.2"/>
<circle clip-path="url(#clip552)" cx="635.614" cy="914.957" r="14" fill="#3da44d" fill-rule="evenodd" fill-opacity="1" stroke="#000000" stroke-opacity="1" stroke-width="3.2"/>
<circle clip-path="url(#clip552)" cx="718.488" cy="810.263" r="14" fill="#3da44d" fill-rule="evenodd" fill-opacity="1" stroke="#000000" stroke-opacity="1" stroke-width="3.2"/>
<circle clip-path="url(#clip552)" cx="801.362" cy="725.551" r="14" fill="#3da44d" fill-rule="evenodd" fill-opacity="1" stroke="#000000" stroke-opacity="1" stroke-width="3.2"/>
<circle clip-path="url(#clip552)" cx="884.235" cy="600.103" r="14" fill="#3da44d" fill-rule="evenodd" fill-opacity="1" stroke="#000000" stroke-opacity="1" stroke-width="3.2"/>
<circle clip-path="url(#clip552)" cx="967.109" cy="501.333" r="14" fill="#3da44d" fill-rule="evenodd" fill-opacity="1" stroke="#000000" stroke-opacity="1" stroke-width="3.2"/>
<circle clip-path="url(#clip552)" cx="1049.98" cy="404.689" r="14" fill="#3da44d" fill-rule="evenodd" fill-opacity="1" stroke="#000000" stroke-opacity="1" stroke-width="3.2"/>
<circle clip-path="url(#clip552)" cx="1132.86" cy="318.058" r="14" fill="#3da44d" fill-rule="evenodd" fill-opacity="1" stroke="#000000" stroke-opacity="1" stroke-width="3.2"/>
<circle clip-path="url(#clip552)" cx="1215.73" cy="224.638" r="14" fill="#3da44d" fill-rule="evenodd" fill-opacity="1" stroke="#000000" stroke-opacity="1" stroke-width="3.2"/>
<circle clip-path="url(#clip552)" cx="1298.6" cy="168.901" r="14" fill="#3da44d" fill-rule="evenodd" fill-opacity="1" stroke="#000000" stroke-opacity="1" stroke-width="3.2"/>
<circle clip-path="url(#clip552)" cx="1381.48" cy="161.714" r="14" fill="#3da44d" fill-rule="evenodd" fill-opacity="1" stroke="#000000" stroke-opacity="1" stroke-width="3.2"/>
<circle clip-path="url(#clip552)" cx="1464.35" cy="133.647" r="14" fill="#3da44d" fill-rule="evenodd" fill-opacity="1" stroke="#000000" stroke-opacity="1" stroke-width="3.2"/>
<circle clip-path="url(#clip552)" cx="1547.22" cy="187.479" r="14" fill="#3da44d" fill-rule="evenodd" fill-opacity="1" stroke="#000000" stroke-opacity="1" stroke-width="3.2"/>
<circle clip-path="url(#clip552)" cx="1630.1" cy="138.699" r="14" fill="#3da44d" fill-rule="evenodd" fill-opacity="1" stroke="#000000" stroke-opacity="1" stroke-width="3.2"/>
<circle clip-path="url(#clip552)" cx="1712.97" cy="91.8564" r="14" fill="#3da44d" fill-rule="evenodd" fill-opacity="1" stroke="#000000" stroke-opacity="1" stroke-width="3.2"/>
<circle clip-path="url(#clip552)" cx="1795.85" cy="89.215" r="14" fill="#3da44d" fill-rule="evenodd" fill-opacity="1" stroke="#000000" stroke-opacity="1" stroke-width="3.2"/>
<circle clip-path="url(#clip552)" cx="1878.72" cy="112.862" r="14" fill="#3da44d" fill-rule="evenodd" fill-opacity="1" stroke="#000000" stroke-opacity="1" stroke-width="3.2"/>
<circle clip-path="url(#clip552)" cx="1961.59" cy="188.273" r="14" fill="#3da44d" fill-rule="evenodd" fill-opacity="1" stroke="#000000" stroke-opacity="1" stroke-width="3.2"/>
<circle clip-path="url(#clip552)" cx="2044.47" cy="229.126" r="14" fill="#3da44d" fill-rule="evenodd" fill-opacity="1" stroke="#000000" stroke-opacity="1" stroke-width="3.2"/>
<circle clip-path="url(#clip552)" cx="2127.34" cy="248.525" r="14" fill="#3da44d" fill-rule="evenodd" fill-opacity="1" stroke="#000000" stroke-opacity="1" stroke-width="3.2"/>
<circle clip-path="url(#clip552)" cx="2210.21" cy="255.172" r="14" fill="#3da44d" fill-rule="evenodd" fill-opacity="1" stroke="#000000" stroke-opacity="1" stroke-width="3.2"/>
<circle clip-path="url(#clip552)" cx="2293.09" cy="264.675" r="14" fill="#3da44d" fill-rule="evenodd" fill-opacity="1" stroke="#000000" stroke-opacity="1" stroke-width="3.2"/>
<circle clip-path="url(#clip552)" cx="304.12" cy="1372.3" r="14" fill="#c271d2" fill-rule="evenodd" fill-opacity="1" stroke="#000000" stroke-opacity="1" stroke-width="3.2"/>
<circle clip-path="url(#clip552)" cx="386.994" cy="1251.78" r="14" fill="#c271d2" fill-rule="evenodd" fill-opacity="1" stroke="#000000" stroke-opacity="1" stroke-width="3.2"/>
<circle clip-path="url(#clip552)" cx="469.867" cy="1164.53" r="14" fill="#c271d2" fill-rule="evenodd" fill-opacity="1" stroke="#000000" stroke-opacity="1" stroke-width="3.2"/>
<circle clip-path="url(#clip552)" cx="552.741" cy="1027.92" r="14" fill="#c271d2" fill-rule="evenodd" fill-opacity="1" stroke="#000000" stroke-opacity="1" stroke-width="3.2"/>
<circle clip-path="url(#clip552)" cx="635.614" cy="914.303" r="14" fill="#c271d2" fill-rule="evenodd" fill-opacity="1" stroke="#000000" stroke-opacity="1" stroke-width="3.2"/>
<circle clip-path="url(#clip552)" cx="718.488" cy="808.144" r="14" fill="#c271d2" fill-rule="evenodd" fill-opacity="1" stroke="#000000" stroke-opacity="1" stroke-width="3.2"/>
<circle clip-path="url(#clip552)" cx="801.362" cy="718.442" r="14" fill="#c271d2" fill-rule="evenodd" fill-opacity="1" stroke="#000000" stroke-opacity="1" stroke-width="3.2"/>
<circle clip-path="url(#clip552)" cx="884.235" cy="599.571" r="14" fill="#c271d2" fill-rule="evenodd" fill-opacity="1" stroke="#000000" stroke-opacity="1" stroke-width="3.2"/>
<circle clip-path="url(#clip552)" cx="967.109" cy="499.14" r="14" fill="#c271d2" fill-rule="evenodd" fill-opacity="1" stroke="#000000" stroke-opacity="1" stroke-width="3.2"/>
<circle clip-path="url(#clip552)" cx="1049.98" cy="400.656" r="14" fill="#c271d2" fill-rule="evenodd" fill-opacity="1" stroke="#000000" stroke-opacity="1" stroke-width="3.2"/>
<circle clip-path="url(#clip552)" cx="1132.86" cy="319.01" r="14" fill="#c271d2" fill-rule="evenodd" fill-opacity="1" stroke="#000000" stroke-opacity="1" stroke-width="3.2"/>
<circle clip-path="url(#clip552)" cx="1215.73" cy="223.137" r="14" fill="#c271d2" fill-rule="evenodd" fill-opacity="1" stroke="#000000" stroke-opacity="1" stroke-width="3.2"/>
<circle clip-path="url(#clip552)" cx="1298.6" cy="168.633" r="14" fill="#c271d2" fill-rule="evenodd" fill-opacity="1" stroke="#000000" stroke-opacity="1" stroke-width="3.2"/>
<circle clip-path="url(#clip552)" cx="1381.48" cy="164.492" r="14" fill="#c271d2" fill-rule="evenodd" fill-opacity="1" stroke="#000000" stroke-opacity="1" stroke-width="3.2"/>
<circle clip-path="url(#clip552)" cx="1464.35" cy="132.595" r="14" fill="#c271d2" fill-rule="evenodd" fill-opacity="1" stroke="#000000" stroke-opacity="1" stroke-width="3.2"/>
<circle clip-path="url(#clip552)" cx="1547.22" cy="188.328" r="14" fill="#c271d2" fill-rule="evenodd" fill-opacity="1" stroke="#000000" stroke-opacity="1" stroke-width="3.2"/>
<circle clip-path="url(#clip552)" cx="1630.1" cy="144.311" r="14" fill="#c271d2" fill-rule="evenodd" fill-opacity="1" stroke="#000000" stroke-opacity="1" stroke-width="3.2"/>
<circle clip-path="url(#clip552)" cx="1712.97" cy="96.4222" r="14" fill="#c271d2" fill-rule="evenodd" fill-opacity="1" stroke="#000000" stroke-opacity="1" stroke-width="3.2"/>
<circle clip-path="url(#clip552)" cx="1795.85" cy="87.8843" r="14" fill="#c271d2" fill-rule="evenodd" fill-opacity="1" stroke="#000000" stroke-opacity="1" stroke-width="3.2"/>
<circle clip-path="url(#clip552)" cx="1878.72" cy="113.042" r="14" fill="#c271d2" fill-rule="evenodd" fill-opacity="1" stroke="#000000" stroke-opacity="1" stroke-width="3.2"/>
<circle clip-path="url(#clip552)" cx="1961.59" cy="188.779" r="14" fill="#c271d2" fill-rule="evenodd" fill-opacity="1" stroke="#000000" stroke-opacity="1" stroke-width="3.2"/>
<circle clip-path="url(#clip552)" cx="2044.47" cy="230.341" r="14" fill="#c271d2" fill-rule="evenodd" fill-opacity="1" stroke="#000000" stroke-opacity="1" stroke-width="3.2"/>
<circle clip-path="url(#clip552)" cx="2127.34" cy="248.873" r="14" fill="#c271d2" fill-rule="evenodd" fill-opacity="1" stroke="#000000" stroke-opacity="1" stroke-width="3.2"/>
<circle clip-path="url(#clip552)" cx="2210.21" cy="255.336" r="14" fill="#c271d2" fill-rule="evenodd" fill-opacity="1" stroke="#000000" stroke-opacity="1" stroke-width="3.2"/>
<circle clip-path="url(#clip552)" cx="2293.09" cy="264.372" r="14" fill="#c271d2" fill-rule="evenodd" fill-opacity="1" stroke="#000000" stroke-opacity="1" stroke-width="3.2"/>
<path clip-path="url(#clip550)" d="
M1904.4 1365.44 L2282.48 1365.44 L2282.48 1106.24 L1904.4 1106.24  Z
  " fill="#ffffff" fill-rule="evenodd" fill-opacity="1"/>
<polyline clip-path="url(#clip550)" style="stroke:#000000; stroke-linecap:butt; stroke-linejoin:round; stroke-width:4; stroke-opacity:1; fill:none" points="
  1904.4,1365.44 2282.48,1365.44 2282.48,1106.24 1904.4,1106.24 1904.4,1365.44 
  "/>
<circle clip-path="url(#clip550)" cx="1998.11" cy="1158.08" r="23" fill="#009af9" fill-rule="evenodd" fill-opacity="1" stroke="#000000" stroke-opacity="1" stroke-width="5.12"/>
<path clip-path="url(#clip550)" d="M2106.99 1153.42 Q2106.28 1153 2105.42 1152.82 Q2104.59 1152.61 2103.57 1152.61 Q2099.96 1152.61 2098.01 1154.97 Q2096.09 1157.31 2096.09 1161.7 L2096.09 1175.36 L2091.81 1175.36 L2091.81 1149.44 L2096.09 1149.44 L2096.09 1153.46 Q2097.43 1151.1 2099.59 1149.97 Q2101.74 1148.81 2104.82 1148.81 Q2105.26 1148.81 2105.79 1148.88 Q2106.32 1148.93 2106.97 1149.04 L2106.99 1153.42 Z" fill="#000000" fill-rule="evenodd" fill-opacity="1" /><path clip-path="url(#clip550)" d="M2123.24 1162.33 Q2118.08 1162.33 2116.09 1163.51 Q2114.1 1164.69 2114.1 1167.54 Q2114.1 1169.81 2115.58 1171.15 Q2117.09 1172.47 2119.66 1172.47 Q2123.2 1172.47 2125.33 1169.97 Q2127.48 1167.44 2127.48 1163.28 L2127.48 1162.33 L2123.24 1162.33 M2131.74 1160.57 L2131.74 1175.36 L2127.48 1175.36 L2127.48 1171.43 Q2126.02 1173.79 2123.85 1174.92 Q2121.67 1176.03 2118.52 1176.03 Q2114.54 1176.03 2112.18 1173.81 Q2109.84 1171.57 2109.84 1167.82 Q2109.84 1163.44 2112.76 1161.22 Q2115.7 1159 2121.51 1159 L2127.48 1159 L2127.48 1158.58 Q2127.48 1155.64 2125.54 1154.04 Q2123.61 1152.42 2120.12 1152.42 Q2117.9 1152.42 2115.79 1152.95 Q2113.68 1153.49 2111.74 1154.55 L2111.74 1150.62 Q2114.08 1149.71 2116.28 1149.27 Q2118.48 1148.81 2120.56 1148.81 Q2126.18 1148.81 2128.96 1151.73 Q2131.74 1154.64 2131.74 1160.57 Z" fill="#000000" fill-rule="evenodd" fill-opacity="1" /><path clip-path="url(#clip550)" d="M2162.06 1159.71 L2162.06 1175.36 L2157.8 1175.36 L2157.8 1159.85 Q2157.8 1156.17 2156.37 1154.34 Q2154.93 1152.51 2152.06 1152.51 Q2148.61 1152.51 2146.62 1154.71 Q2144.63 1156.91 2144.63 1160.71 L2144.63 1175.36 L2140.35 1175.36 L2140.35 1149.44 L2144.63 1149.44 L2144.63 1153.46 Q2146.16 1151.13 2148.22 1149.97 Q2150.3 1148.81 2153.01 1148.81 Q2157.48 1148.81 2159.77 1151.59 Q2162.06 1154.34 2162.06 1159.71 Z" fill="#000000" fill-rule="evenodd" fill-opacity="1" /><path clip-path="url(#clip550)" d="M2170.4 1139.34 L2174.68 1139.34 L2174.68 1160.62 L2187.39 1149.44 L2192.83 1149.44 L2179.08 1161.57 L2193.41 1175.36 L2187.85 1175.36 L2174.68 1162.7 L2174.68 1175.36 L2170.4 1175.36 L2170.4 1139.34 Z" fill="#000000" fill-rule="evenodd" fill-opacity="1" /><path clip-path="url(#clip550)" d="M2223.68 1143.88 Q2220.07 1143.88 2218.24 1147.45 Q2216.44 1150.99 2216.44 1158.12 Q2216.44 1165.22 2218.24 1168.79 Q2220.07 1172.33 2223.68 1172.33 Q2227.32 1172.33 2229.12 1168.79 Q2230.95 1165.22 2230.95 1158.12 Q2230.95 1150.99 2229.12 1147.45 Q2227.32 1143.88 2223.68 1143.88 M2223.68 1140.18 Q2229.49 1140.18 2232.55 1144.78 Q2235.63 1149.37 2235.63 1158.12 Q2235.63 1166.84 2232.55 1171.45 Q2229.49 1176.03 2223.68 1176.03 Q2217.87 1176.03 2214.79 1171.45 Q2211.74 1166.84 2211.74 1158.12 Q2211.74 1149.37 2214.79 1144.78 Q2217.87 1140.18 2223.68 1140.18 Z" fill="#000000" fill-rule="evenodd" fill-opacity="1" /><circle clip-path="url(#clip550)" cx="1998.11" cy="1209.92" r="23" fill="#e26f46" fill-rule="evenodd" fill-opacity="1" stroke="#000000" stroke-opacity="1" stroke-width="5.12"/>
<path clip-path="url(#clip550)" d="M2106.99 1205.26 Q2106.28 1204.84 2105.42 1204.66 Q2104.59 1204.45 2103.57 1204.45 Q2099.96 1204.45 2098.01 1206.81 Q2096.09 1209.15 2096.09 1213.54 L2096.09 1227.2 L2091.81 1227.2 L2091.81 1201.28 L2096.09 1201.28 L2096.09 1205.3 Q2097.43 1202.94 2099.59 1201.81 Q2101.74 1200.65 2104.82 1200.65 Q2105.26 1200.65 2105.79 1200.72 Q2106.32 1200.77 2106.97 1200.88 L2106.99 1205.26 Z" fill="#000000" fill-rule="evenodd" fill-opacity="1" /><path clip-path="url(#clip550)" d="M2123.24 1214.17 Q2118.08 1214.17 2116.09 1215.35 Q2114.1 1216.53 2114.1 1219.38 Q2114.1 1221.65 2115.58 1222.99 Q2117.09 1224.31 2119.66 1224.31 Q2123.2 1224.31 2125.33 1221.81 Q2127.48 1219.28 2127.48 1215.12 L2127.48 1214.17 L2123.24 1214.17 M2131.74 1212.41 L2131.74 1227.2 L2127.48 1227.2 L2127.48 1223.27 Q2126.02 1225.63 2123.85 1226.76 Q2121.67 1227.87 2118.52 1227.87 Q2114.54 1227.87 2112.18 1225.65 Q2109.84 1223.41 2109.84 1219.66 Q2109.84 1215.28 2112.76 1213.06 Q2115.7 1210.84 2121.51 1210.84 L2127.48 1210.84 L2127.48 1210.42 Q2127.48 1207.48 2125.54 1205.88 Q2123.61 1204.26 2120.12 1204.26 Q2117.9 1204.26 2115.79 1204.79 Q2113.68 1205.33 2111.74 1206.39 L2111.74 1202.46 Q2114.08 1201.55 2116.28 1201.11 Q2118.48 1200.65 2120.56 1200.65 Q2126.18 1200.65 2128.96 1203.57 Q2131.74 1206.48 2131.74 1212.41 Z" fill="#000000" fill-rule="evenodd" fill-opacity="1" /><path clip-path="url(#clip550)" d="M2162.06 1211.55 L2162.06 1227.2 L2157.8 1227.2 L2157.8 1211.69 Q2157.8 1208.01 2156.37 1206.18 Q2154.93 1204.35 2152.06 1204.35 Q2148.61 1204.35 2146.62 1206.55 Q2144.63 1208.75 2144.63 1212.55 L2144.63 1227.2 L2140.35 1227.2 L2140.35 1201.28 L2144.63 1201.28 L2144.63 1205.3 Q2146.16 1202.97 2148.22 1201.81 Q2150.3 1200.65 2153.01 1200.65 Q2157.48 1200.65 2159.77 1203.43 Q2162.06 1206.18 2162.06 1211.55 Z" fill="#000000" fill-rule="evenodd" fill-opacity="1" /><path clip-path="url(#clip550)" d="M2170.4 1191.18 L2174.68 1191.18 L2174.68 1212.46 L2187.39 1201.28 L2192.83 1201.28 L2179.08 1213.41 L2193.41 1227.2 L2187.85 1227.2 L2174.68 1214.54 L2174.68 1227.2 L2170.4 1227.2 L2170.4 1191.18 Z" fill="#000000" fill-rule="evenodd" fill-opacity="1" /><path clip-path="url(#clip550)" d="M2214.49 1223.27 L2222.13 1223.27 L2222.13 1196.9 L2213.82 1198.57 L2213.82 1194.31 L2222.09 1192.64 L2226.76 1192.64 L2226.76 1223.27 L2234.4 1223.27 L2234.4 1227.2 L2214.49 1227.2 L2214.49 1223.27 Z" fill="#000000" fill-rule="evenodd" fill-opacity="1" /><circle clip-path="url(#clip550)" cx="1998.11" cy="1261.76" r="23" fill="#3da44d" fill-rule="evenodd" fill-opacity="1" stroke="#000000" stroke-opacity="1" stroke-width="5.12"/>
<path clip-path="url(#clip550)" d="M2106.99 1257.1 Q2106.28 1256.68 2105.42 1256.5 Q2104.59 1256.29 2103.57 1256.29 Q2099.96 1256.29 2098.01 1258.65 Q2096.09 1260.99 2096.09 1265.38 L2096.09 1279.04 L2091.81 1279.04 L2091.81 1253.12 L2096.09 1253.12 L2096.09 1257.14 Q2097.43 1254.78 2099.59 1253.65 Q2101.74 1252.49 2104.82 1252.49 Q2105.26 1252.49 2105.79 1252.56 Q2106.32 1252.61 2106.97 1252.72 L2106.99 1257.1 Z" fill="#000000" fill-rule="evenodd" fill-opacity="1" /><path clip-path="url(#clip550)" d="M2123.24 1266.01 Q2118.08 1266.01 2116.09 1267.19 Q2114.1 1268.37 2114.1 1271.22 Q2114.1 1273.49 2115.58 1274.83 Q2117.09 1276.15 2119.66 1276.15 Q2123.2 1276.15 2125.33 1273.65 Q2127.48 1271.12 2127.48 1266.96 L2127.48 1266.01 L2123.24 1266.01 M2131.74 1264.25 L2131.74 1279.04 L2127.48 1279.04 L2127.48 1275.11 Q2126.02 1277.47 2123.85 1278.6 Q2121.67 1279.71 2118.52 1279.71 Q2114.54 1279.71 2112.18 1277.49 Q2109.84 1275.25 2109.84 1271.5 Q2109.84 1267.12 2112.76 1264.9 Q2115.7 1262.68 2121.51 1262.68 L2127.48 1262.68 L2127.48 1262.26 Q2127.48 1259.32 2125.54 1257.72 Q2123.61 1256.1 2120.12 1256.1 Q2117.9 1256.1 2115.79 1256.63 Q2113.68 1257.17 2111.74 1258.23 L2111.74 1254.3 Q2114.08 1253.39 2116.28 1252.95 Q2118.48 1252.49 2120.56 1252.49 Q2126.18 1252.49 2128.96 1255.41 Q2131.74 1258.32 2131.74 1264.25 Z" fill="#000000" fill-rule="evenodd" fill-opacity="1" /><path clip-path="url(#clip550)" d="M2162.06 1263.39 L2162.06 1279.04 L2157.8 1279.04 L2157.8 1263.53 Q2157.8 1259.85 2156.37 1258.02 Q2154.93 1256.19 2152.06 1256.19 Q2148.61 1256.19 2146.62 1258.39 Q2144.63 1260.59 2144.63 1264.39 L2144.63 1279.04 L2140.35 1279.04 L2140.35 1253.12 L2144.63 1253.12 L2144.63 1257.14 Q2146.16 1254.81 2148.22 1253.65 Q2150.3 1252.49 2153.01 1252.49 Q2157.48 1252.49 2159.77 1255.27 Q2162.06 1258.02 2162.06 1263.39 Z" fill="#000000" fill-rule="evenodd" fill-opacity="1" /><path clip-path="url(#clip550)" d="M2170.4 1243.02 L2174.68 1243.02 L2174.68 1264.3 L2187.39 1253.12 L2192.83 1253.12 L2179.08 1265.25 L2193.41 1279.04 L2187.85 1279.04 L2174.68 1266.38 L2174.68 1279.04 L2170.4 1279.04 L2170.4 1243.02 Z" fill="#000000" fill-rule="evenodd" fill-opacity="1" /><path clip-path="url(#clip550)" d="M2217.71 1275.11 L2234.03 1275.11 L2234.03 1279.04 L2212.09 1279.04 L2212.09 1275.11 Q2214.75 1272.35 2219.33 1267.72 Q2223.94 1263.07 2225.12 1261.73 Q2227.36 1259.2 2228.24 1257.47 Q2229.15 1255.71 2229.15 1254.02 Q2229.15 1251.26 2227.2 1249.53 Q2225.28 1247.79 2222.18 1247.79 Q2219.98 1247.79 2217.53 1248.56 Q2215.1 1249.32 2212.32 1250.87 L2212.32 1246.15 Q2215.14 1245.01 2217.6 1244.44 Q2220.05 1243.86 2222.09 1243.86 Q2227.46 1243.86 2230.65 1246.54 Q2233.85 1249.23 2233.85 1253.72 Q2233.85 1255.85 2233.04 1257.77 Q2232.25 1259.67 2230.14 1262.26 Q2229.56 1262.93 2226.46 1266.15 Q2223.36 1269.34 2217.71 1275.11 Z" fill="#000000" fill-rule="evenodd" fill-opacity="1" /><circle clip-path="url(#clip550)" cx="1998.11" cy="1313.6" r="23" fill="#c271d2" fill-rule="evenodd" fill-opacity="1" stroke="#000000" stroke-opacity="1" stroke-width="5.12"/>
<path clip-path="url(#clip550)" d="M2106.99 1308.94 Q2106.28 1308.52 2105.42 1308.34 Q2104.59 1308.13 2103.57 1308.13 Q2099.96 1308.13 2098.01 1310.49 Q2096.09 1312.83 2096.09 1317.22 L2096.09 1330.88 L2091.81 1330.88 L2091.81 1304.96 L2096.09 1304.96 L2096.09 1308.98 Q2097.43 1306.62 2099.59 1305.49 Q2101.74 1304.33 2104.82 1304.33 Q2105.26 1304.33 2105.79 1304.4 Q2106.32 1304.45 2106.97 1304.56 L2106.99 1308.94 Z" fill="#000000" fill-rule="evenodd" fill-opacity="1" /><path clip-path="url(#clip550)" d="M2123.24 1317.85 Q2118.08 1317.85 2116.09 1319.03 Q2114.1 1320.21 2114.1 1323.06 Q2114.1 1325.33 2115.58 1326.67 Q2117.09 1327.99 2119.66 1327.99 Q2123.2 1327.99 2125.33 1325.49 Q2127.48 1322.96 2127.48 1318.8 L2127.48 1317.85 L2123.24 1317.85 M2131.74 1316.09 L2131.74 1330.88 L2127.48 1330.88 L2127.48 1326.95 Q2126.02 1329.31 2123.85 1330.44 Q2121.67 1331.55 2118.52 1331.55 Q2114.54 1331.55 2112.18 1329.33 Q2109.84 1327.09 2109.84 1323.34 Q2109.84 1318.96 2112.76 1316.74 Q2115.7 1314.52 2121.51 1314.52 L2127.48 1314.52 L2127.48 1314.1 Q2127.48 1311.16 2125.54 1309.56 Q2123.61 1307.94 2120.12 1307.94 Q2117.9 1307.94 2115.79 1308.47 Q2113.68 1309.01 2111.74 1310.07 L2111.74 1306.14 Q2114.08 1305.23 2116.28 1304.79 Q2118.48 1304.33 2120.56 1304.33 Q2126.18 1304.33 2128.96 1307.25 Q2131.74 1310.16 2131.74 1316.09 Z" fill="#000000" fill-rule="evenodd" fill-opacity="1" /><path clip-path="url(#clip550)" d="M2162.06 1315.23 L2162.06 1330.88 L2157.8 1330.88 L2157.8 1315.37 Q2157.8 1311.69 2156.37 1309.86 Q2154.93 1308.03 2152.06 1308.03 Q2148.61 1308.03 2146.62 1310.23 Q2144.63 1312.43 2144.63 1316.23 L2144.63 1330.88 L2140.35 1330.88 L2140.35 1304.96 L2144.63 1304.96 L2144.63 1308.98 Q2146.16 1306.65 2148.22 1305.49 Q2150.3 1304.33 2153.01 1304.33 Q2157.48 1304.33 2159.77 1307.11 Q2162.06 1309.86 2162.06 1315.23 Z" fill="#000000" fill-rule="evenodd" fill-opacity="1" /><path clip-path="url(#clip550)" d="M2170.4 1294.86 L2174.68 1294.86 L2174.68 1316.14 L2187.39 1304.96 L2192.83 1304.96 L2179.08 1317.09 L2193.41 1330.88 L2187.85 1330.88 L2174.68 1318.22 L2174.68 1330.88 L2170.4 1330.88 L2170.4 1294.86 Z" fill="#000000" fill-rule="evenodd" fill-opacity="1" /><path clip-path="url(#clip550)" d="M2227.85 1312.25 Q2231.21 1312.96 2233.08 1315.23 Q2234.98 1317.5 2234.98 1320.84 Q2234.98 1325.95 2231.46 1328.75 Q2227.94 1331.55 2221.46 1331.55 Q2219.29 1331.55 2216.97 1331.11 Q2214.68 1330.7 2212.23 1329.84 L2212.23 1325.33 Q2214.17 1326.46 2216.48 1327.04 Q2218.8 1327.62 2221.32 1327.62 Q2225.72 1327.62 2228.01 1325.88 Q2230.33 1324.15 2230.33 1320.84 Q2230.33 1317.78 2228.17 1316.07 Q2226.04 1314.33 2222.23 1314.33 L2218.2 1314.33 L2218.2 1310.49 L2222.41 1310.49 Q2225.86 1310.49 2227.69 1309.12 Q2229.52 1307.73 2229.52 1305.14 Q2229.52 1302.48 2227.62 1301.07 Q2225.74 1299.63 2222.23 1299.63 Q2220.3 1299.63 2218.1 1300.05 Q2215.91 1300.47 2213.27 1301.34 L2213.27 1297.18 Q2215.93 1296.44 2218.24 1296.07 Q2220.58 1295.7 2222.64 1295.7 Q2227.97 1295.7 2231.07 1298.13 Q2234.17 1300.53 2234.17 1304.65 Q2234.17 1307.53 2232.53 1309.52 Q2230.88 1311.48 2227.85 1312.25 Z" fill="#000000" fill-rule="evenodd" fill-opacity="1" /></svg>
