<?xml version="1.0" encoding="utf-8"?>
<svg xmlns="http://www.w3.org/2000/svg" xmlns:xlink="http://www.w3.org/1999/xlink" width="600" height="400" viewBox="0 0 2400 1600">
<defs>
  <clipPath id="clip520">
    <rect x="0" y="0" width="2400" height="1600"/>
  </clipPath>
</defs>
<path clip-path="url(#clip520)" d="
M0 1600 L2400 1600 L2400 0 L0 0  Z
  " fill="#ffffff" fill-rule="evenodd" fill-opacity="1"/>
<defs>
  <clipPath id="clip521">
    <rect x="480" y="0" width="1681" height="1600"/>
  </clipPath>
</defs>
<path clip-path="url(#clip520)" d="
M252.764 1410.9 L2352.76 1410.9 L2352.76 47.2441 L252.764 47.2441  Z
  " fill="#ffffff" fill-rule="evenodd" fill-opacity="1"/>
<defs>
  <clipPath id="clip522">
    <rect x="252" y="47" width="2101" height="1365"/>
  </clipPath>
</defs>
<polyline clip-path="url(#clip522)" style="stroke:#000000; stroke-linecap:butt; stroke-linejoin:round; stroke-width:2; stroke-opacity:0.1; fill:none" points="
  1052.29,1410.9 1052.29,47.2441 
  "/>
<polyline clip-path="url(#clip522)" style="stroke:#000000; stroke-linecap:butt; stroke-linejoin:round; stroke-width:2; stroke-opacity:0.1; fill:none" points="
  1874.94,1410.9 1874.94,47.2441 
  "/>
<polyline clip-path="url(#clip520)" style="stroke:#000000; stroke-linecap:butt; stroke-linejoin:round; stroke-width:4; stroke-opacity:1; fill:none" points="
  252.764,1410.9 2352.76,1410.9 
  "/>
<polyline clip-path="url(#clip520)" style="stroke:#000000; stroke-linecap:butt; stroke-linejoin:round; stroke-width:4; stroke-opacity:1; fill:none" points="
  1052.29,1410.9 1052.29,1392 
  "/>
<polyline clip-path="url(#clip520)" style="stroke:#000000; stroke-linecap:butt; stroke-linejoin:round; stroke-width:4; stroke-opacity:1; fill:none" points="
  1874.94,1410.9 1874.94,1392 
  "/>
<path clip-path="url(#clip520)" d="M1017.74 1485.02 L1025.38 1485.02 L1025.38 1458.66 L1017.07 1460.32 L1017.07 1456.06 L1025.33 1454.4 L1030.01 1454.4 L1030.01 1485.02 L1037.65 1485.02 L1037.65 1488.96 L1017.74 1488.96 L1017.74 1485.02 Z" fill="#000000" fill-rule="evenodd" fill-opacity="1" /><path clip-path="url(#clip520)" d="M1057.09 1457.48 Q1053.48 1457.48 1051.65 1461.04 Q1049.84 1464.58 1049.84 1471.71 Q1049.84 1478.82 1051.65 1482.38 Q1053.48 1485.92 1057.09 1485.92 Q1060.72 1485.92 1062.53 1482.38 Q1064.36 1478.82 1064.36 1471.71 Q1064.36 1464.58 1062.53 1461.04 Q1060.72 1457.48 1057.09 1457.48 M1057.09 1453.77 Q1062.9 1453.77 1065.96 1458.38 Q1069.03 1462.96 1069.03 1471.71 Q1069.03 1480.44 1065.96 1485.04 Q1062.9 1489.63 1057.09 1489.63 Q1051.28 1489.63 1048.2 1485.04 Q1045.15 1480.44 1045.15 1471.71 Q1045.15 1462.96 1048.2 1458.38 Q1051.28 1453.77 1057.09 1453.77 Z" fill="#000000" fill-rule="evenodd" fill-opacity="1" /><path clip-path="url(#clip520)" d="M1081.73 1446.41 Q1084.46 1446.99 1085.98 1448.83 Q1087.52 1450.68 1087.52 1453.38 Q1087.52 1457.54 1084.66 1459.82 Q1081.81 1462.09 1076.54 1462.09 Q1074.77 1462.09 1072.89 1461.73 Q1071.03 1461.4 1069.03 1460.7 L1069.03 1457.03 Q1070.61 1457.95 1072.5 1458.42 Q1074.38 1458.89 1076.43 1458.89 Q1080 1458.89 1081.86 1457.48 Q1083.74 1456.07 1083.74 1453.38 Q1083.74 1450.9 1081.99 1449.51 Q1080.26 1448.1 1077.16 1448.1 L1073.89 1448.1 L1073.89 1444.98 L1077.31 1444.98 Q1080.11 1444.98 1081.6 1443.87 Q1083.08 1442.74 1083.08 1440.63 Q1083.08 1438.47 1081.54 1437.32 Q1080.02 1436.16 1077.16 1436.16 Q1075.6 1436.16 1073.81 1436.49 Q1072.03 1436.83 1069.88 1437.55 L1069.88 1434.16 Q1072.04 1433.56 1073.92 1433.26 Q1075.82 1432.96 1077.5 1432.96 Q1081.82 1432.96 1084.34 1434.93 Q1086.86 1436.89 1086.86 1440.24 Q1086.86 1442.57 1085.53 1444.19 Q1084.19 1445.79 1081.73 1446.41 Z" fill="#000000" fill-rule="evenodd" fill-opacity="1" /><path clip-path="url(#clip520)" d="M1839.93 1485.02 L1847.57 1485.02 L1847.57 1458.66 L1839.26 1460.32 L1839.26 1456.06 L1847.52 1454.4 L1852.2 1454.4 L1852.2 1485.02 L1859.84 1485.02 L1859.84 1488.96 L1839.93 1488.96 L1839.93 1485.02 Z" fill="#000000" fill-rule="evenodd" fill-opacity="1" /><path clip-path="url(#clip520)" d="M1879.28 1457.48 Q1875.67 1457.48 1873.84 1461.04 Q1872.04 1464.58 1872.04 1471.71 Q1872.04 1478.82 1873.84 1482.38 Q1875.67 1485.92 1879.28 1485.92 Q1882.92 1485.92 1884.72 1482.38 Q1886.55 1478.82 1886.55 1471.71 Q1886.55 1464.58 1884.72 1461.04 Q1882.92 1457.48 1879.28 1457.48 M1879.28 1453.77 Q1885.09 1453.77 1888.15 1458.38 Q1891.23 1462.96 1891.23 1471.71 Q1891.23 1480.44 1888.15 1485.04 Q1885.09 1489.63 1879.28 1489.63 Q1873.47 1489.63 1870.39 1485.04 Q1867.34 1480.44 1867.34 1471.71 Q1867.34 1462.96 1870.39 1458.38 Q1873.47 1453.77 1879.28 1453.77 Z" fill="#000000" fill-rule="evenodd" fill-opacity="1" /><path clip-path="url(#clip520)" d="M1901.25 1445.99 Q1898.69 1445.99 1897.19 1447.74 Q1895.7 1449.49 1895.7 1452.54 Q1895.7 1455.57 1897.19 1457.33 Q1898.69 1459.08 1901.25 1459.08 Q1903.81 1459.08 1905.3 1457.33 Q1906.8 1455.57 1906.8 1452.54 Q1906.8 1449.49 1905.3 1447.74 Q1903.81 1445.99 1901.25 1445.99 M1908.79 1434.09 L1908.79 1437.55 Q1907.36 1436.87 1905.9 1436.51 Q1904.45 1436.16 1903.02 1436.16 Q1899.26 1436.16 1897.26 1438.69 Q1895.29 1441.23 1895.01 1446.37 Q1896.12 1444.73 1897.79 1443.87 Q1899.47 1442.98 1901.48 1442.98 Q1905.71 1442.98 1908.15 1445.56 Q1910.62 1448.12 1910.62 1452.54 Q1910.62 1456.86 1908.06 1459.48 Q1905.5 1462.09 1901.25 1462.09 Q1896.38 1462.09 1893.8 1458.37 Q1891.23 1454.62 1891.23 1447.53 Q1891.23 1440.88 1894.39 1436.93 Q1897.55 1432.96 1902.87 1432.96 Q1904.3 1432.96 1905.75 1433.24 Q1907.21 1433.52 1908.79 1434.09 Z" fill="#000000" fill-rule="evenodd" fill-opacity="1" /><path clip-path="url(#clip520)" d="M963.07 1526.67 L972.65 1526.67 L984.777 1559 L996.967 1526.67 L1006.55 1526.67 L1006.55 1574.19 L1000.28 1574.19 L1000.28 1532.46 L988.023 1565.05 L981.562 1565.05 L969.308 1532.46 L969.308 1574.19 L963.07 1574.19 L963.07 1526.67 Z" fill="#000000" fill-rule="evenodd" fill-opacity="1" /><path clip-path="url(#clip520)" d="M1049.55 1554.9 L1049.55 1557.76 L1022.62 1557.76 Q1023 1563.81 1026.25 1566.99 Q1029.53 1570.14 1035.35 1570.14 Q1038.73 1570.14 1041.88 1569.32 Q1045.06 1568.49 1048.18 1566.83 L1048.18 1572.37 Q1045.03 1573.71 1041.72 1574.41 Q1038.41 1575.11 1035 1575.11 Q1026.47 1575.11 1021.48 1570.14 Q1016.51 1565.18 1016.51 1556.71 Q1016.51 1547.96 1021.22 1542.83 Q1025.96 1537.68 1033.98 1537.68 Q1041.18 1537.68 1045.35 1542.33 Q1049.55 1546.94 1049.55 1554.9 M1043.69 1553.18 Q1043.63 1548.37 1040.99 1545.51 Q1038.38 1542.64 1034.05 1542.64 Q1029.15 1542.64 1026.19 1545.41 Q1023.26 1548.18 1022.81 1553.21 L1043.69 1553.18 Z" fill="#000000" fill-rule="evenodd" fill-opacity="1" /><path clip-path="url(#clip520)" d="M1081.89 1539.59 L1081.89 1545.13 Q1079.4 1543.85 1076.73 1543.22 Q1074.06 1542.58 1071.19 1542.58 Q1066.83 1542.58 1064.63 1543.92 Q1062.47 1545.25 1062.47 1547.93 Q1062.47 1549.96 1064.03 1551.14 Q1065.59 1552.29 1070.3 1553.34 L1072.31 1553.78 Q1078.54 1555.12 1081.15 1557.57 Q1083.8 1559.99 1083.8 1564.35 Q1083.8 1569.32 1079.85 1572.21 Q1075.93 1575.11 1069.06 1575.11 Q1066.19 1575.11 1063.08 1574.54 Q1059.99 1573.99 1056.55 1572.88 L1056.55 1566.83 Q1059.8 1568.52 1062.95 1569.38 Q1066.1 1570.21 1069.19 1570.21 Q1073.32 1570.21 1075.55 1568.81 Q1077.78 1567.37 1077.78 1564.8 Q1077.78 1562.41 1076.16 1561.14 Q1074.57 1559.86 1069.12 1558.68 L1067.09 1558.21 Q1061.64 1557.06 1059.22 1554.71 Q1056.8 1552.32 1056.8 1548.18 Q1056.8 1543.15 1060.37 1540.42 Q1063.93 1537.68 1070.49 1537.68 Q1073.74 1537.68 1076.6 1538.16 Q1079.47 1538.63 1081.89 1539.59 Z" fill="#000000" fill-rule="evenodd" fill-opacity="1" /><path clip-path="url(#clip520)" d="M1115.85 1539.59 L1115.85 1545.13 Q1113.36 1543.85 1110.69 1543.22 Q1108.02 1542.58 1105.15 1542.58 Q1100.79 1542.58 1098.6 1543.92 Q1096.43 1545.25 1096.43 1547.93 Q1096.43 1549.96 1097.99 1551.14 Q1099.55 1552.29 1104.26 1553.34 L1106.27 1553.78 Q1112.5 1555.12 1115.11 1557.57 Q1117.76 1559.99 1117.76 1564.35 Q1117.76 1569.32 1113.81 1572.21 Q1109.89 1575.11 1103.02 1575.11 Q1100.16 1575.11 1097.04 1574.54 Q1093.95 1573.99 1090.51 1572.88 L1090.51 1566.83 Q1093.76 1568.52 1096.91 1569.38 Q1100.06 1570.21 1103.15 1570.21 Q1107.28 1570.21 1109.51 1568.81 Q1111.74 1567.37 1111.74 1564.8 Q1111.74 1562.41 1110.12 1561.14 Q1108.53 1559.86 1103.08 1558.68 L1101.05 1558.21 Q1095.6 1557.06 1093.18 1554.71 Q1090.77 1552.32 1090.77 1548.18 Q1090.77 1543.15 1094.33 1540.42 Q1097.9 1537.68 1104.45 1537.68 Q1107.7 1537.68 1110.56 1538.16 Q1113.43 1538.63 1115.85 1539.59 Z" fill="#000000" fill-rule="evenodd" fill-opacity="1" /><path clip-path="url(#clip520)" d="M1143.28 1556.27 Q1136.19 1556.27 1133.45 1557.89 Q1130.71 1559.51 1130.71 1563.43 Q1130.71 1566.55 1132.75 1568.39 Q1134.82 1570.21 1138.35 1570.21 Q1143.22 1570.21 1146.15 1566.77 Q1149.11 1563.3 1149.11 1557.57 L1149.11 1556.27 L1143.28 1556.27 M1154.96 1553.85 L1154.96 1574.19 L1149.11 1574.19 L1149.11 1568.77 Q1147.1 1572.02 1144.11 1573.58 Q1141.12 1575.11 1136.79 1575.11 Q1131.32 1575.11 1128.07 1572.05 Q1124.85 1568.97 1124.85 1563.81 Q1124.85 1557.79 1128.86 1554.74 Q1132.91 1551.68 1140.9 1551.68 L1149.11 1551.68 L1149.11 1551.11 Q1149.11 1547.07 1146.43 1544.87 Q1143.79 1542.64 1138.99 1542.64 Q1135.93 1542.64 1133.03 1543.38 Q1130.14 1544.11 1127.46 1545.57 L1127.46 1540.16 Q1130.68 1538.92 1133.7 1538.31 Q1136.73 1537.68 1139.59 1537.68 Q1147.33 1537.68 1151.14 1541.69 Q1154.96 1545.7 1154.96 1553.85 Z" fill="#000000" fill-rule="evenodd" fill-opacity="1" /><path clip-path="url(#clip520)" d="M1190.48 1555.95 Q1190.48 1549.58 1187.84 1546.08 Q1185.23 1542.58 1180.49 1542.58 Q1175.78 1542.58 1173.14 1546.08 Q1170.53 1549.58 1170.53 1555.95 Q1170.53 1562.28 1173.14 1565.78 Q1175.78 1569.28 1180.49 1569.28 Q1185.23 1569.28 1187.84 1565.78 Q1190.48 1562.28 1190.48 1555.95 M1196.34 1569.76 Q1196.34 1578.86 1192.3 1583.29 Q1188.26 1587.74 1179.92 1587.74 Q1176.83 1587.74 1174.09 1587.27 Q1171.36 1586.82 1168.78 1585.87 L1168.78 1580.17 Q1171.36 1581.57 1173.87 1582.24 Q1176.38 1582.91 1178.99 1582.91 Q1184.76 1582.91 1187.62 1579.88 Q1190.48 1576.89 1190.48 1570.81 L1190.48 1567.92 Q1188.67 1571.07 1185.84 1572.63 Q1183.01 1574.19 1179.06 1574.19 Q1172.5 1574.19 1168.49 1569.19 Q1164.48 1564.19 1164.48 1555.95 Q1164.48 1547.67 1168.49 1542.68 Q1172.5 1537.68 1179.06 1537.68 Q1183.01 1537.68 1185.84 1539.24 Q1188.67 1540.8 1190.48 1543.95 L1190.48 1538.54 L1196.34 1538.54 L1196.34 1569.76 Z" fill="#000000" fill-rule="evenodd" fill-opacity="1" /><path clip-path="url(#clip520)" d="M1238.9 1554.9 L1238.9 1557.76 L1211.97 1557.76 Q1212.35 1563.81 1215.6 1566.99 Q1218.88 1570.14 1224.7 1570.14 Q1228.07 1570.14 1231.23 1569.32 Q1234.41 1568.49 1237.53 1566.83 L1237.53 1572.37 Q1234.38 1573.71 1231.07 1574.41 Q1227.76 1575.11 1224.35 1575.11 Q1215.82 1575.11 1210.82 1570.14 Q1205.86 1565.18 1205.86 1556.71 Q1205.86 1547.96 1210.57 1542.83 Q1215.31 1537.68 1223.33 1537.68 Q1230.53 1537.68 1234.69 1542.33 Q1238.9 1546.94 1238.9 1554.9 M1233.04 1553.18 Q1232.98 1548.37 1230.33 1545.51 Q1227.72 1542.64 1223.4 1542.64 Q1218.49 1542.64 1215.53 1545.41 Q1212.61 1548.18 1212.16 1553.21 L1233.04 1553.18 Z" fill="#000000" fill-rule="evenodd" fill-opacity="1" /><path clip-path="url(#clip520)" d="M1297.97 1528.23 L1297.97 1534.5 Q1294.31 1532.74 1291.06 1531.89 Q1287.82 1531.03 1284.79 1531.03 Q1279.54 1531.03 1276.68 1533.06 Q1273.84 1535.1 1273.84 1538.86 Q1273.84 1542.01 1275.72 1543.63 Q1277.63 1545.22 1282.91 1546.21 L1286.8 1547 Q1293.99 1548.37 1297.4 1551.84 Q1300.83 1555.28 1300.83 1561.07 Q1300.83 1567.98 1296.19 1571.54 Q1291.57 1575.11 1282.63 1575.11 Q1279.25 1575.11 1275.44 1574.34 Q1271.65 1573.58 1267.57 1572.08 L1267.57 1565.46 Q1271.49 1567.66 1275.24 1568.77 Q1279 1569.89 1282.63 1569.89 Q1288.13 1569.89 1291.13 1567.72 Q1294.12 1565.56 1294.12 1561.55 Q1294.12 1558.05 1291.95 1556.08 Q1289.82 1554.1 1284.92 1553.11 L1281.01 1552.35 Q1273.81 1550.92 1270.6 1547.86 Q1267.38 1544.81 1267.38 1539.37 Q1267.38 1533.06 1271.81 1529.43 Q1276.26 1525.81 1284.06 1525.81 Q1287.4 1525.81 1290.87 1526.41 Q1294.34 1527.02 1297.97 1528.23 Z" fill="#000000" fill-rule="evenodd" fill-opacity="1" /><path clip-path="url(#clip520)" d="M1310.61 1538.54 L1316.46 1538.54 L1316.46 1574.19 L1310.61 1574.19 L1310.61 1538.54 M1310.61 1524.66 L1316.46 1524.66 L1316.46 1532.08 L1310.61 1532.08 L1310.61 1524.66 Z" fill="#000000" fill-rule="evenodd" fill-opacity="1" /><path clip-path="url(#clip520)" d="M1326.17 1538.54 L1353.99 1538.54 L1353.99 1543.88 L1331.96 1569.51 L1353.99 1569.51 L1353.99 1574.19 L1325.37 1574.19 L1325.37 1568.84 L1347.4 1543.22 L1326.17 1543.22 L1326.17 1538.54 Z" fill="#000000" fill-rule="evenodd" fill-opacity="1" /><path clip-path="url(#clip520)" d="M1393.42 1554.9 L1393.42 1557.76 L1366.5 1557.76 Q1366.88 1563.81 1370.13 1566.99 Q1373.4 1570.14 1379.23 1570.14 Q1382.6 1570.14 1385.75 1569.32 Q1388.94 1568.49 1392.05 1566.83 L1392.05 1572.37 Q1388.9 1573.71 1385.59 1574.41 Q1382.28 1575.11 1378.88 1575.11 Q1370.35 1575.11 1365.35 1570.14 Q1360.39 1565.18 1360.39 1556.71 Q1360.39 1547.96 1365.1 1542.83 Q1369.84 1537.68 1377.86 1537.68 Q1385.05 1537.68 1389.22 1542.33 Q1393.42 1546.94 1393.42 1554.9 M1387.57 1553.18 Q1387.5 1548.37 1384.86 1545.51 Q1382.25 1542.64 1377.92 1542.64 Q1373.02 1542.64 1370.06 1545.41 Q1367.13 1548.18 1366.69 1553.21 L1387.57 1553.18 Z" fill="#000000" fill-rule="evenodd" fill-opacity="1" /><path clip-path="url(#clip520)" d="M1437.82 1524.72 Q1433.56 1532.04 1431.49 1539.21 Q1429.42 1546.37 1429.42 1553.72 Q1429.42 1561.07 1431.49 1568.3 Q1433.59 1575.49 1437.82 1582.78 L1432.73 1582.78 Q1427.96 1575.3 1425.57 1568.07 Q1423.22 1560.85 1423.22 1553.72 Q1423.22 1546.62 1425.57 1539.43 Q1427.93 1532.24 1432.73 1524.72 L1437.82 1524.72 Z" fill="#000000" fill-rule="evenodd" fill-opacity="1" /><path clip-path="url(#clip520)" d="M1474.78 1556.39 Q1474.78 1549.93 1472.1 1546.27 Q1469.46 1542.58 1464.81 1542.58 Q1460.17 1542.58 1457.49 1546.27 Q1454.85 1549.93 1454.85 1556.39 Q1454.85 1562.85 1457.49 1566.55 Q1460.17 1570.21 1464.81 1570.21 Q1469.46 1570.21 1472.1 1566.55 Q1474.78 1562.85 1474.78 1556.39 M1454.85 1543.95 Q1456.7 1540.77 1459.5 1539.24 Q1462.33 1537.68 1466.25 1537.68 Q1472.74 1537.68 1476.78 1542.83 Q1480.86 1547.99 1480.86 1556.39 Q1480.86 1564.8 1476.78 1569.95 Q1472.74 1575.11 1466.25 1575.11 Q1462.33 1575.11 1459.5 1573.58 Q1456.7 1572.02 1454.85 1568.84 L1454.85 1574.19 L1448.96 1574.19 L1448.96 1524.66 L1454.85 1524.66 L1454.85 1543.95 Z" fill="#000000" fill-rule="evenodd" fill-opacity="1" /><path clip-path="url(#clip520)" d="M1505.4 1577.5 Q1502.91 1583.86 1500.56 1585.8 Q1498.2 1587.74 1494.26 1587.74 L1489.58 1587.74 L1489.58 1582.84 L1493.01 1582.84 Q1495.43 1582.84 1496.77 1581.7 Q1498.11 1580.55 1499.73 1576.29 L1500.78 1573.61 L1486.36 1538.54 L1492.57 1538.54 L1503.71 1566.42 L1514.85 1538.54 L1521.06 1538.54 L1505.4 1577.5 Z" fill="#000000" fill-rule="evenodd" fill-opacity="1" /><path clip-path="url(#clip520)" d="M1534.93 1528.42 L1534.93 1538.54 L1547 1538.54 L1547 1543.09 L1534.93 1543.09 L1534.93 1562.44 Q1534.93 1566.8 1536.11 1568.04 Q1537.32 1569.28 1540.98 1569.28 L1547 1569.28 L1547 1574.19 L1540.98 1574.19 Q1534.2 1574.19 1531.62 1571.67 Q1529.04 1569.12 1529.04 1562.44 L1529.04 1543.09 L1524.75 1543.09 L1524.75 1538.54 L1529.04 1538.54 L1529.04 1528.42 L1534.93 1528.42 Z" fill="#000000" fill-rule="evenodd" fill-opacity="1" /><path clip-path="url(#clip520)" d="M1585.19 1554.9 L1585.19 1557.76 L1558.26 1557.76 Q1558.65 1563.81 1561.89 1566.99 Q1565.17 1570.14 1570.99 1570.14 Q1574.37 1570.14 1577.52 1569.32 Q1580.7 1568.49 1583.82 1566.83 L1583.82 1572.37 Q1580.67 1573.71 1577.36 1574.41 Q1574.05 1575.11 1570.64 1575.11 Q1562.11 1575.11 1557.12 1570.14 Q1552.15 1565.18 1552.15 1556.71 Q1552.15 1547.96 1556.86 1542.83 Q1561.61 1537.68 1569.63 1537.68 Q1576.82 1537.68 1580.99 1542.33 Q1585.19 1546.94 1585.19 1554.9 M1579.33 1553.18 Q1579.27 1548.37 1576.63 1545.51 Q1574.02 1542.64 1569.69 1542.64 Q1564.79 1542.64 1561.83 1545.41 Q1558.9 1548.18 1558.45 1553.21 L1579.33 1553.18 Z" fill="#000000" fill-rule="evenodd" fill-opacity="1" /><path clip-path="url(#clip520)" d="M1617.53 1539.59 L1617.53 1545.13 Q1615.05 1543.85 1612.37 1543.22 Q1609.7 1542.58 1606.83 1542.58 Q1602.47 1542.58 1600.28 1543.92 Q1598.11 1545.25 1598.11 1547.93 Q1598.11 1549.96 1599.67 1551.14 Q1601.23 1552.29 1605.94 1553.34 L1607.95 1553.78 Q1614.19 1555.12 1616.8 1557.57 Q1619.44 1559.99 1619.44 1564.35 Q1619.44 1569.32 1615.49 1572.21 Q1611.58 1575.11 1604.7 1575.11 Q1601.84 1575.11 1598.72 1574.54 Q1595.63 1573.99 1592.19 1572.88 L1592.19 1566.83 Q1595.44 1568.52 1598.59 1569.38 Q1601.74 1570.21 1604.83 1570.21 Q1608.97 1570.21 1611.19 1568.81 Q1613.42 1567.37 1613.42 1564.8 Q1613.42 1562.41 1611.8 1561.14 Q1610.21 1559.86 1604.76 1558.68 L1602.73 1558.21 Q1597.29 1557.06 1594.87 1554.71 Q1592.45 1552.32 1592.45 1548.18 Q1592.45 1543.15 1596.01 1540.42 Q1599.58 1537.68 1606.13 1537.68 Q1609.38 1537.68 1612.24 1538.16 Q1615.11 1538.63 1617.53 1539.59 Z" fill="#000000" fill-rule="evenodd" fill-opacity="1" /><path clip-path="url(#clip520)" d="M1627.84 1524.72 L1632.93 1524.72 Q1637.71 1532.24 1640.06 1539.43 Q1642.45 1546.62 1642.45 1553.72 Q1642.45 1560.85 1640.06 1568.07 Q1637.71 1575.3 1632.93 1582.78 L1627.84 1582.78 Q1632.07 1575.49 1634.14 1568.3 Q1636.24 1561.07 1636.24 1553.72 Q1636.24 1546.37 1634.14 1539.21 Q1632.07 1532.04 1627.84 1524.72 Z" fill="#000000" fill-rule="evenodd" fill-opacity="1" /><polyline clip-path="url(#clip522)" style="stroke:#000000; stroke-linecap:butt; stroke-linejoin:round; stroke-width:2; stroke-opacity:0.1; fill:none" points="
  252.764,1346.9 2352.76,1346.9 
  "/>
<polyline clip-path="url(#clip522)" style="stroke:#000000; stroke-linecap:butt; stroke-linejoin:round; stroke-width:2; stroke-opacity:0.1; fill:none" points="
  252.764,1040.89 2352.76,1040.89 
  "/>
<polyline clip-path="url(#clip522)" style="stroke:#000000; stroke-linecap:butt; stroke-linejoin:round; stroke-width:2; stroke-opacity:0.1; fill:none" points="
  252.764,734.876 2352.76,734.876 
  "/>
<polyline clip-path="url(#clip522)" style="stroke:#000000; stroke-linecap:butt; stroke-linejoin:round; stroke-width:2; stroke-opacity:0.1; fill:none" points="
  252.764,428.865 2352.76,428.865 
  "/>
<polyline clip-path="url(#clip522)" style="stroke:#000000; stroke-linecap:butt; stroke-linejoin:round; stroke-width:2; stroke-opacity:0.1; fill:none" points="
  252.764,122.854 2352.76,122.854 
  "/>
<polyline clip-path="url(#clip520)" style="stroke:#000000; stroke-linecap:butt; stroke-linejoin:round; stroke-width:4; stroke-opacity:1; fill:none" points="
  252.764,1410.9 252.764,47.2441 
  "/>
<polyline clip-path="url(#clip520)" style="stroke:#000000; stroke-linecap:butt; stroke-linejoin:round; stroke-width:4; stroke-opacity:1; fill:none" points="
  252.764,1346.9 271.662,1346.9 
  "/>
<polyline clip-path="url(#clip520)" style="stroke:#000000; stroke-linecap:butt; stroke-linejoin:round; stroke-width:4; stroke-opacity:1; fill:none" points="
  252.764,1040.89 271.662,1040.89 
  "/>
<polyline clip-path="url(#clip520)" style="stroke:#000000; stroke-linecap:butt; stroke-linejoin:round; stroke-width:4; stroke-opacity:1; fill:none" points="
  252.764,734.876 271.662,734.876 
  "/>
<polyline clip-path="url(#clip520)" style="stroke:#000000; stroke-linecap:butt; stroke-linejoin:round; stroke-width:4; stroke-opacity:1; fill:none" points="
  252.764,428.865 271.662,428.865 
  "/>
<polyline clip-path="url(#clip520)" style="stroke:#000000; stroke-linecap:butt; stroke-linejoin:round; stroke-width:4; stroke-opacity:1; fill:none" points="
  252.764,122.854 271.662,122.854 
  "/>
<path clip-path="url(#clip520)" d="M115.195 1366.69 L122.834 1366.69 L122.834 1340.32 L114.523 1341.99 L114.523 1337.73 L122.787 1336.07 L127.463 1336.07 L127.463 1366.69 L135.102 1366.69 L135.102 1370.63 L115.195 1370.63 L115.195 1366.69 Z" fill="#000000" fill-rule="evenodd" fill-opacity="1" /><path clip-path="url(#clip520)" d="M154.546 1339.14 Q150.935 1339.14 149.107 1342.71 Q147.301 1346.25 147.301 1353.38 Q147.301 1360.49 149.107 1364.05 Q150.935 1367.59 154.546 1367.59 Q158.181 1367.59 159.986 1364.05 Q161.815 1360.49 161.815 1353.38 Q161.815 1346.25 159.986 1342.71 Q158.181 1339.14 154.546 1339.14 M154.546 1335.44 Q160.357 1335.44 163.412 1340.05 Q166.491 1344.63 166.491 1353.38 Q166.491 1362.11 163.412 1366.71 Q160.357 1371.3 154.546 1371.3 Q148.736 1371.3 145.658 1366.71 Q142.602 1362.11 142.602 1353.38 Q142.602 1344.63 145.658 1340.05 Q148.736 1335.44 154.546 1335.44 Z" fill="#000000" fill-rule="evenodd" fill-opacity="1" /><path clip-path="url(#clip520)" d="M166.491 1329.54 L190.602 1329.54 L190.602 1332.74 L166.491 1332.74 L166.491 1329.54 Z" fill="#000000" fill-rule="evenodd" fill-opacity="1" /><path clip-path="url(#clip520)" d="M207.398 1327.66 Q204.84 1327.66 203.335 1329.41 Q201.849 1331.16 201.849 1334.21 Q201.849 1337.23 203.335 1339 Q204.84 1340.75 207.398 1340.75 Q209.956 1340.75 211.441 1339 Q212.946 1337.23 212.946 1334.21 Q212.946 1331.16 211.441 1329.41 Q209.956 1327.66 207.398 1327.66 M214.94 1315.76 L214.94 1319.22 Q213.51 1318.54 212.043 1318.18 Q210.595 1317.82 209.166 1317.82 Q205.404 1317.82 203.41 1320.36 Q201.436 1322.9 201.153 1328.04 Q202.263 1326.4 203.937 1325.54 Q205.611 1324.65 207.623 1324.65 Q211.855 1324.65 214.3 1327.23 Q216.764 1329.79 216.764 1334.21 Q216.764 1338.53 214.206 1341.15 Q211.648 1343.76 207.398 1343.76 Q202.526 1343.76 199.95 1340.04 Q197.373 1336.29 197.373 1329.2 Q197.373 1322.55 200.533 1318.6 Q203.693 1314.63 209.015 1314.63 Q210.445 1314.63 211.893 1314.91 Q213.36 1315.19 214.94 1315.76 Z" fill="#000000" fill-rule="evenodd" fill-opacity="1" /><path clip-path="url(#clip520)" d="M116.135 1060.68 L123.774 1060.68 L123.774 1034.31 L115.464 1035.98 L115.464 1031.72 L123.728 1030.05 L128.404 1030.05 L128.404 1060.68 L136.042 1060.68 L136.042 1064.61 L116.135 1064.61 L116.135 1060.68 Z" fill="#000000" fill-rule="evenodd" fill-opacity="1" /><path clip-path="url(#clip520)" d="M155.487 1033.13 Q151.876 1033.13 150.047 1036.7 Q148.241 1040.24 148.241 1047.37 Q148.241 1054.48 150.047 1058.04 Q151.876 1061.58 155.487 1061.58 Q159.121 1061.58 160.927 1058.04 Q162.755 1054.48 162.755 1047.37 Q162.755 1040.24 160.927 1036.7 Q159.121 1033.13 155.487 1033.13 M155.487 1029.43 Q161.297 1029.43 164.352 1034.04 Q167.431 1038.62 167.431 1047.37 Q167.431 1056.1 164.352 1060.7 Q161.297 1065.29 155.487 1065.29 Q149.677 1065.29 146.598 1060.7 Q143.542 1056.1 143.542 1047.37 Q143.542 1038.62 146.598 1034.04 Q149.677 1029.43 155.487 1029.43 Z" fill="#000000" fill-rule="evenodd" fill-opacity="1" /><path clip-path="url(#clip520)" d="M167.431 1023.53 L191.543 1023.53 L191.543 1026.73 L167.431 1026.73 L167.431 1023.53 Z" fill="#000000" fill-rule="evenodd" fill-opacity="1" /><path clip-path="url(#clip520)" d="M199.781 1009.12 L214.695 1009.12 L214.695 1012.32 L203.26 1012.32 L203.26 1019.21 Q204.088 1018.92 204.915 1018.79 Q205.743 1018.64 206.57 1018.64 Q211.272 1018.64 214.018 1021.22 Q216.764 1023.79 216.764 1028.2 Q216.764 1032.73 213.943 1035.25 Q211.122 1037.75 205.987 1037.75 Q204.219 1037.75 202.376 1037.45 Q200.552 1037.15 198.596 1036.55 L198.596 1032.73 Q200.288 1033.65 202.094 1034.1 Q203.899 1034.55 205.912 1034.55 Q209.166 1034.55 211.065 1032.84 Q212.965 1031.13 212.965 1028.2 Q212.965 1025.26 211.065 1023.55 Q209.166 1021.84 205.912 1021.84 Q204.388 1021.84 202.865 1022.18 Q201.36 1022.52 199.781 1023.23 L199.781 1009.12 Z" fill="#000000" fill-rule="evenodd" fill-opacity="1" /><path clip-path="url(#clip520)" d="M114.931 754.668 L122.57 754.668 L122.57 728.303 L114.26 729.97 L114.26 725.71 L122.524 724.044 L127.2 724.044 L127.2 754.668 L134.839 754.668 L134.839 758.604 L114.931 758.604 L114.931 754.668 Z" fill="#000000" fill-rule="evenodd" fill-opacity="1" /><path clip-path="url(#clip520)" d="M154.283 727.122 Q150.672 727.122 148.843 730.687 Q147.038 734.229 147.038 741.358 Q147.038 748.465 148.843 752.03 Q150.672 755.571 154.283 755.571 Q157.917 755.571 159.723 752.03 Q161.552 748.465 161.552 741.358 Q161.552 734.229 159.723 730.687 Q157.917 727.122 154.283 727.122 M154.283 723.419 Q160.093 723.419 163.149 728.025 Q166.227 732.608 166.227 741.358 Q166.227 750.085 163.149 754.692 Q160.093 759.275 154.283 759.275 Q148.473 759.275 145.394 754.692 Q142.339 750.085 142.339 741.358 Q142.339 732.608 145.394 728.025 Q148.473 723.419 154.283 723.419 Z" fill="#000000" fill-rule="evenodd" fill-opacity="1" /><path clip-path="url(#clip520)" d="M166.227 717.52 L190.339 717.52 L190.339 720.717 L166.227 720.717 L166.227 717.52 Z" fill="#000000" fill-rule="evenodd" fill-opacity="1" /><path clip-path="url(#clip520)" d="M208.978 706.423 L199.386 721.413 L208.978 721.413 L208.978 706.423 M207.981 703.113 L212.758 703.113 L212.758 721.413 L216.764 721.413 L216.764 724.573 L212.758 724.573 L212.758 731.193 L208.978 731.193 L208.978 724.573 L196.301 724.573 L196.301 720.905 L207.981 703.113 Z" fill="#000000" fill-rule="evenodd" fill-opacity="1" /><path clip-path="url(#clip520)" d="M115.853 448.658 L123.492 448.658 L123.492 422.292 L115.182 423.959 L115.182 419.699 L123.446 418.033 L128.121 418.033 L128.121 448.658 L135.76 448.658 L135.76 452.593 L115.853 452.593 L115.853 448.658 Z" fill="#000000" fill-rule="evenodd" fill-opacity="1" /><path clip-path="url(#clip520)" d="M155.205 421.111 Q151.594 421.111 149.765 424.676 Q147.959 428.218 147.959 435.348 Q147.959 442.454 149.765 446.019 Q151.594 449.56 155.205 449.56 Q158.839 449.56 160.644 446.019 Q162.473 442.454 162.473 435.348 Q162.473 428.218 160.644 424.676 Q158.839 421.111 155.205 421.111 M155.205 417.408 Q161.015 417.408 164.07 422.014 Q167.149 426.598 167.149 435.348 Q167.149 444.074 164.07 448.681 Q161.015 453.264 155.205 453.264 Q149.395 453.264 146.316 448.681 Q143.26 444.074 143.26 435.348 Q143.26 426.598 146.316 422.014 Q149.395 417.408 155.205 417.408 Z" fill="#000000" fill-rule="evenodd" fill-opacity="1" /><path clip-path="url(#clip520)" d="M167.149 411.509 L191.261 411.509 L191.261 414.706 L167.149 414.706 L167.149 411.509 Z" fill="#000000" fill-rule="evenodd" fill-opacity="1" /><path clip-path="url(#clip520)" d="M210.971 410.042 Q213.698 410.625 215.222 412.468 Q216.764 414.311 216.764 417.02 Q216.764 421.176 213.905 423.452 Q211.046 425.728 205.78 425.728 Q204.012 425.728 202.132 425.37 Q200.27 425.032 198.276 424.336 L198.276 420.669 Q199.856 421.59 201.737 422.06 Q203.617 422.53 205.667 422.53 Q209.241 422.53 211.103 421.12 Q212.984 419.709 212.984 417.02 Q212.984 414.537 211.234 413.145 Q209.504 411.735 206.401 411.735 L203.128 411.735 L203.128 408.613 L206.551 408.613 Q209.354 408.613 210.84 407.503 Q212.325 406.375 212.325 404.268 Q212.325 402.105 210.783 400.958 Q209.26 399.792 206.401 399.792 Q204.84 399.792 203.053 400.13 Q201.266 400.469 199.122 401.184 L199.122 397.798 Q201.285 397.196 203.166 396.896 Q205.066 396.595 206.739 396.595 Q211.065 396.595 213.585 398.569 Q216.106 400.525 216.106 403.873 Q216.106 406.205 214.77 407.823 Q213.435 409.421 210.971 410.042 Z" fill="#000000" fill-rule="evenodd" fill-opacity="1" /><path clip-path="url(#clip520)" d="M116.624 142.647 L124.263 142.647 L124.263 116.281 L115.953 117.948 L115.953 113.689 L124.217 112.022 L128.893 112.022 L128.893 142.647 L136.531 142.647 L136.531 146.582 L116.624 146.582 L116.624 142.647 Z" fill="#000000" fill-rule="evenodd" fill-opacity="1" /><path clip-path="url(#clip520)" d="M155.976 115.101 Q152.365 115.101 150.536 118.665 Q148.73 122.207 148.73 129.337 Q148.73 136.443 150.536 140.008 Q152.365 143.55 155.976 143.55 Q159.61 143.55 161.416 140.008 Q163.244 136.443 163.244 129.337 Q163.244 122.207 161.416 118.665 Q159.61 115.101 155.976 115.101 M155.976 111.397 Q161.786 111.397 164.841 116.003 Q167.92 120.587 167.92 129.337 Q167.92 138.063 164.841 142.67 Q161.786 147.253 155.976 147.253 Q150.166 147.253 147.087 142.67 Q144.031 138.063 144.031 129.337 Q144.031 120.587 147.087 116.003 Q150.166 111.397 155.976 111.397 Z" fill="#000000" fill-rule="evenodd" fill-opacity="1" /><path clip-path="url(#clip520)" d="M167.92 105.498 L192.032 105.498 L192.032 108.696 L167.92 108.696 L167.92 105.498 Z" fill="#000000" fill-rule="evenodd" fill-opacity="1" /><path clip-path="url(#clip520)" d="M203.504 115.974 L216.764 115.974 L216.764 119.172 L198.934 119.172 L198.934 115.974 Q201.097 113.736 204.821 109.975 Q208.564 106.194 209.523 105.103 Q211.347 103.053 212.062 101.643 Q212.796 100.213 212.796 98.8403 Q212.796 96.6022 211.216 95.1916 Q209.655 93.7811 207.134 93.7811 Q205.348 93.7811 203.354 94.4017 Q201.379 95.0224 199.122 96.2825 L199.122 92.4457 Q201.417 91.5241 203.41 91.0539 Q205.404 90.5837 207.059 90.5837 Q211.423 90.5837 214.018 92.7654 Q216.613 94.9471 216.613 98.5958 Q216.613 100.326 215.955 101.887 Q215.316 103.429 213.604 105.536 Q213.134 106.081 210.614 108.696 Q208.094 111.291 203.504 115.974 Z" fill="#000000" fill-rule="evenodd" fill-opacity="1" /><path clip-path="url(#clip520)" d="M16.4842 904.668 L16.4842 898.239 L58.5933 898.239 L58.5933 875.1 L64.0042 875.1 L64.0042 904.668 L16.4842 904.668 Z" fill="#000000" fill-rule="evenodd" fill-opacity="1" /><path clip-path="url(#clip520)" d="M46.0847 852.406 Q46.0847 859.504 47.7079 862.241 Q49.3312 864.978 53.2461 864.978 Q56.3653 864.978 58.2114 862.941 Q60.0256 860.872 60.0256 857.339 Q60.0256 852.47 56.5881 849.541 Q53.1188 846.581 47.3897 846.581 L46.0847 846.581 L46.0847 852.406 M43.6657 840.725 L64.0042 840.725 L64.0042 846.581 L58.5933 846.581 Q61.8398 848.587 63.3994 851.578 Q64.9272 854.57 64.9272 858.899 Q64.9272 864.373 61.8716 867.62 Q58.7843 870.835 53.6281 870.835 Q47.6125 870.835 44.5569 866.824 Q41.5014 862.782 41.5014 854.793 L41.5014 846.581 L40.9285 846.581 Q36.8862 846.581 34.6901 849.255 Q32.4621 851.897 32.4621 856.703 Q32.4621 859.758 33.1941 862.655 Q33.9262 865.551 35.3903 868.225 L29.9795 868.225 Q28.7381 865.01 28.1334 861.986 Q27.4968 858.963 27.4968 856.098 Q27.4968 848.364 31.5072 844.544 Q35.5176 840.725 43.6657 840.725 Z" fill="#000000" fill-rule="evenodd" fill-opacity="1" /><path clip-path="url(#clip520)" d="M18.2347 822.869 L28.3562 822.869 L28.3562 810.806 L32.9077 810.806 L32.9077 822.869 L52.2594 822.869 Q56.6199 822.869 57.8613 821.691 Q59.1026 820.482 59.1026 816.822 L59.1026 810.806 L64.0042 810.806 L64.0042 816.822 Q64.0042 823.601 61.4897 826.179 Q58.9434 828.757 52.2594 828.757 L32.9077 828.757 L32.9077 833.054 L28.3562 833.054 L28.3562 828.757 L18.2347 828.757 L18.2347 822.869 Z" fill="#000000" fill-rule="evenodd" fill-opacity="1" /><path clip-path="url(#clip520)" d="M44.7161 772.612 L47.5806 772.612 L47.5806 799.539 Q53.6281 799.157 56.8109 795.91 Q59.9619 792.632 59.9619 786.807 Q59.9619 783.434 59.1344 780.282 Q58.3069 777.1 56.6518 773.98 L62.1899 773.98 Q63.5267 777.131 64.227 780.442 Q64.9272 783.752 64.9272 787.157 Q64.9272 795.687 59.9619 800.685 Q54.9967 805.65 46.5303 805.65 Q37.7774 805.65 32.6531 800.939 Q27.4968 796.197 27.4968 788.176 Q27.4968 780.983 32.1438 776.813 Q36.7589 772.612 44.7161 772.612 M42.9973 778.468 Q38.1912 778.532 35.3266 781.174 Q32.4621 783.784 32.4621 788.112 Q32.4621 793.014 35.2312 795.974 Q38.0002 798.902 43.0292 799.348 L42.9973 778.468 Z" fill="#000000" fill-rule="evenodd" fill-opacity="1" /><path clip-path="url(#clip520)" d="M42.4881 733.367 L64.0042 733.367 L64.0042 739.224 L42.679 739.224 Q37.6183 739.224 35.1038 741.197 Q32.5894 743.17 32.5894 747.117 Q32.5894 751.86 35.6131 754.597 Q38.6368 757.334 43.8567 757.334 L64.0042 757.334 L64.0042 763.222 L28.3562 763.222 L28.3562 757.334 L33.8944 757.334 Q30.6797 755.233 29.0883 752.401 Q27.4968 749.536 27.4968 745.812 Q27.4968 739.669 31.3163 736.518 Q35.1038 733.367 42.4881 733.367 Z" fill="#000000" fill-rule="evenodd" fill-opacity="1" /><path clip-path="url(#clip520)" d="M29.7248 696.032 L35.1993 696.032 Q33.8307 698.515 33.1623 701.029 Q32.4621 703.512 32.4621 706.058 Q32.4621 711.756 36.0905 714.907 Q39.6872 718.058 46.212 718.058 Q52.7369 718.058 56.3653 714.907 Q59.9619 711.756 59.9619 706.058 Q59.9619 703.512 59.2935 701.029 Q58.5933 698.515 57.2247 696.032 L62.6355 696.032 Q63.7814 698.483 64.3543 701.125 Q64.9272 703.735 64.9272 706.695 Q64.9272 714.748 59.8664 719.49 Q54.8057 724.232 46.212 724.232 Q37.491 724.232 32.4939 719.458 Q27.4968 714.652 27.4968 706.313 Q27.4968 703.608 28.0697 701.029 Q28.6108 698.451 29.7248 696.032 Z" fill="#000000" fill-rule="evenodd" fill-opacity="1" /><path clip-path="url(#clip520)" d="M67.3143 671.015 Q73.68 673.498 75.6216 675.853 Q77.5631 678.208 77.5631 682.155 L77.5631 686.834 L72.6615 686.834 L72.6615 683.396 Q72.6615 680.977 71.5157 679.641 Q70.3699 678.304 66.1048 676.681 L63.4312 675.63 L28.3562 690.049 L28.3562 683.842 L56.238 672.702 L28.3562 661.562 L28.3562 655.355 L67.3143 671.015 Z" fill="#000000" fill-rule="evenodd" fill-opacity="1" /><path clip-path="url(#clip520)" d="M14.5426 612.482 Q21.8632 616.747 29.0246 618.816 Q36.186 620.885 43.5384 620.885 Q50.8908 620.885 58.1159 618.816 Q65.3091 616.716 72.5979 612.482 L72.5979 617.575 Q65.1182 622.349 57.8931 624.736 Q50.668 627.092 43.5384 627.092 Q36.4406 627.092 29.2474 624.736 Q22.0542 622.381 14.5426 617.575 L14.5426 612.482 Z" fill="#000000" fill-rule="evenodd" fill-opacity="1" /><path clip-path="url(#clip520)" d="M29.4065 578.394 L34.9447 578.394 Q33.6716 580.877 33.035 583.55 Q32.3984 586.224 32.3984 589.088 Q32.3984 593.449 33.7352 595.645 Q35.072 597.809 37.7456 597.809 Q39.7826 597.809 40.9603 596.25 Q42.1061 594.69 43.1565 589.98 L43.6021 587.974 Q44.9389 581.736 47.3897 579.126 Q49.8086 576.484 54.1691 576.484 Q59.1344 576.484 62.0308 580.431 Q64.9272 584.346 64.9272 591.221 Q64.9272 594.086 64.3543 597.205 Q63.8132 600.292 62.6992 603.73 L56.6518 603.73 Q58.3387 600.483 59.198 597.332 Q60.0256 594.181 60.0256 591.094 Q60.0256 586.956 58.6251 584.728 Q57.1929 582.5 54.6147 582.5 Q52.2276 582.5 50.9545 584.123 Q49.6813 585.715 48.5037 591.157 L48.0262 593.194 Q46.8804 598.637 44.5251 601.056 Q42.138 603.475 38.0002 603.475 Q32.9713 603.475 30.2341 599.91 Q27.4968 596.345 27.4968 589.789 Q27.4968 586.542 27.9743 583.678 Q28.4517 580.813 29.4065 578.394 Z" fill="#000000" fill-rule="evenodd" fill-opacity="1" /><path clip-path="url(#clip520)" d="M14.5426 568.082 L14.5426 562.989 Q22.0542 558.215 29.2474 555.859 Q36.4406 553.472 43.5384 553.472 Q50.668 553.472 57.8931 555.859 Q65.1182 558.215 72.5979 562.989 L72.5979 568.082 Q65.3091 563.848 58.1159 561.78 Q50.8908 559.679 43.5384 559.679 Q36.186 559.679 29.0246 561.78 Q21.8632 563.848 14.5426 568.082 Z" fill="#000000" fill-rule="evenodd" fill-opacity="1" /><circle clip-path="url(#clip522)" cx="312.198" cy="1349.04" r="14" fill="#009af9" fill-rule="evenodd" fill-opacity="1" stroke="#000000" stroke-opacity="1" stroke-width="3.2"/>
<circle clip-path="url(#clip522)" cx="394.745" cy="1356.4" r="14" fill="#009af9" fill-rule="evenodd" fill-opacity="1" stroke="#000000" stroke-opacity="1" stroke-width="3.2"/>
<circle clip-path="url(#clip522)" cx="477.291" cy="1345.12" r="14" fill="#009af9" fill-rule="evenodd" fill-opacity="1" stroke="#000000" stroke-opacity="1" stroke-width="3.2"/>
<circle clip-path="url(#clip522)" cx="559.838" cy="1367.41" r="14" fill="#009af9" fill-rule="evenodd" fill-opacity="1" stroke="#000000" stroke-opacity="1" stroke-width="3.2"/>
<circle clip-path="url(#clip522)" cx="642.385" cy="1368.18" r="14" fill="#009af9" fill-rule="evenodd" fill-opacity="1" stroke="#000000" stroke-opacity="1" stroke-width="3.2"/>
<circle clip-path="url(#clip522)" cx="724.932" cy="1367.72" r="14" fill="#009af9" fill-rule="evenodd" fill-opacity="1" stroke="#000000" stroke-opacity="1" stroke-width="3.2"/>
<circle clip-path="url(#clip522)" cx="807.479" cy="1351.7" r="14" fill="#009af9" fill-rule="evenodd" fill-opacity="1" stroke="#000000" stroke-opacity="1" stroke-width="3.2"/>
<circle clip-path="url(#clip522)" cx="890.026" cy="1364.19" r="14" fill="#009af9" fill-rule="evenodd" fill-opacity="1" stroke="#000000" stroke-opacity="1" stroke-width="3.2"/>
<circle clip-path="url(#clip522)" cx="972.573" cy="1355.12" r="14" fill="#009af9" fill-rule="evenodd" fill-opacity="1" stroke="#000000" stroke-opacity="1" stroke-width="3.2"/>
<circle clip-path="url(#clip522)" cx="1055.12" cy="1345.9" r="14" fill="#009af9" fill-rule="evenodd" fill-opacity="1" stroke="#000000" stroke-opacity="1" stroke-width="3.2"/>
<circle clip-path="url(#clip522)" cx="1137.67" cy="1327.34" r="14" fill="#009af9" fill-rule="evenodd" fill-opacity="1" stroke="#000000" stroke-opacity="1" stroke-width="3.2"/>
<circle clip-path="url(#clip522)" cx="1220.21" cy="1317.14" r="14" fill="#009af9" fill-rule="evenodd" fill-opacity="1" stroke="#000000" stroke-opacity="1" stroke-width="3.2"/>
<circle clip-path="url(#clip522)" cx="1302.76" cy="1273.36" r="14" fill="#009af9" fill-rule="evenodd" fill-opacity="1" stroke="#000000" stroke-opacity="1" stroke-width="3.2"/>
<circle clip-path="url(#clip522)" cx="1385.31" cy="1187.3" r="14" fill="#009af9" fill-rule="evenodd" fill-opacity="1" stroke="#000000" stroke-opacity="1" stroke-width="3.2"/>
<circle clip-path="url(#clip522)" cx="1467.85" cy="1120.35" r="14" fill="#009af9" fill-rule="evenodd" fill-opacity="1" stroke="#000000" stroke-opacity="1" stroke-width="3.2"/>
<circle clip-path="url(#clip522)" cx="1550.4" cy="979.713" r="14" fill="#009af9" fill-rule="evenodd" fill-opacity="1" stroke="#000000" stroke-opacity="1" stroke-width="3.2"/>
<circle clip-path="url(#clip522)" cx="1632.95" cy="927.223" r="14" fill="#009af9" fill-rule="evenodd" fill-opacity="1" stroke="#000000" stroke-opacity="1" stroke-width="3.2"/>
<circle clip-path="url(#clip522)" cx="1715.49" cy="875.853" r="14" fill="#009af9" fill-rule="evenodd" fill-opacity="1" stroke="#000000" stroke-opacity="1" stroke-width="3.2"/>
<circle clip-path="url(#clip522)" cx="1798.04" cy="791.717" r="14" fill="#009af9" fill-rule="evenodd" fill-opacity="1" stroke="#000000" stroke-opacity="1" stroke-width="3.2"/>
<circle clip-path="url(#clip522)" cx="1880.59" cy="675.563" r="14" fill="#009af9" fill-rule="evenodd" fill-opacity="1" stroke="#000000" stroke-opacity="1" stroke-width="3.2"/>
<circle clip-path="url(#clip522)" cx="1963.13" cy="519.645" r="14" fill="#009af9" fill-rule="evenodd" fill-opacity="1" stroke="#000000" stroke-opacity="1" stroke-width="3.2"/>
<circle clip-path="url(#clip522)" cx="2045.68" cy="391.994" r="14" fill="#009af9" fill-rule="evenodd" fill-opacity="1" stroke="#000000" stroke-opacity="1" stroke-width="3.2"/>
<circle clip-path="url(#clip522)" cx="2128.23" cy="283.667" r="14" fill="#009af9" fill-rule="evenodd" fill-opacity="1" stroke="#000000" stroke-opacity="1" stroke-width="3.2"/>
<circle clip-path="url(#clip522)" cx="2210.78" cy="185.77" r="14" fill="#009af9" fill-rule="evenodd" fill-opacity="1" stroke="#000000" stroke-opacity="1" stroke-width="3.2"/>
<circle clip-path="url(#clip522)" cx="2293.32" cy="86.2012" r="14" fill="#009af9" fill-rule="evenodd" fill-opacity="1" stroke="#000000" stroke-opacity="1" stroke-width="3.2"/>
<circle clip-path="url(#clip522)" cx="312.198" cy="1352.32" r="14" fill="#e26f46" fill-rule="evenodd" fill-opacity="1" stroke="#000000" stroke-opacity="1" stroke-width="3.2"/>
<circle clip-path="url(#clip522)" cx="394.745" cy="1360.09" r="14" fill="#e26f46" fill-rule="evenodd" fill-opacity="1" stroke="#000000" stroke-opacity="1" stroke-width="3.2"/>
<circle clip-path="url(#clip522)" cx="477.291" cy="1337.84" r="14" fill="#e26f46" fill-rule="evenodd" fill-opacity="1" stroke="#000000" stroke-opacity="1" stroke-width="3.2"/>
<circle clip-path="url(#clip522)" cx="559.838" cy="1368.89" r="14" fill="#e26f46" fill-rule="evenodd" fill-opacity="1" stroke="#000000" stroke-opacity="1" stroke-width="3.2"/>
<circle clip-path="url(#clip522)" cx="642.385" cy="1372.3" r="14" fill="#e26f46" fill-rule="evenodd" fill-opacity="1" stroke="#000000" stroke-opacity="1" stroke-width="3.2"/>
<circle clip-path="url(#clip522)" cx="724.932" cy="1371.82" r="14" fill="#e26f46" fill-rule="evenodd" fill-opacity="1" stroke="#000000" stroke-opacity="1" stroke-width="3.2"/>
<circle clip-path="url(#clip522)" cx="807.479" cy="1350.33" r="14" fill="#e26f46" fill-rule="evenodd" fill-opacity="1" stroke="#000000" stroke-opacity="1" stroke-width="3.2"/>
<circle clip-path="url(#clip522)" cx="890.026" cy="1368.73" r="14" fill="#e26f46" fill-rule="evenodd" fill-opacity="1" stroke="#000000" stroke-opacity="1" stroke-width="3.2"/>
<circle clip-path="url(#clip522)" cx="972.573" cy="1357.62" r="14" fill="#e26f46" fill-rule="evenodd" fill-opacity="1" stroke="#000000" stroke-opacity="1" stroke-width="3.2"/>
<circle clip-path="url(#clip522)" cx="1055.12" cy="1349.58" r="14" fill="#e26f46" fill-rule="evenodd" fill-opacity="1" stroke="#000000" stroke-opacity="1" stroke-width="3.2"/>
<circle clip-path="url(#clip522)" cx="1137.67" cy="1329.89" r="14" fill="#e26f46" fill-rule="evenodd" fill-opacity="1" stroke="#000000" stroke-opacity="1" stroke-width="3.2"/>
<circle clip-path="url(#clip522)" cx="1220.21" cy="1317.88" r="14" fill="#e26f46" fill-rule="evenodd" fill-opacity="1" stroke="#000000" stroke-opacity="1" stroke-width="3.2"/>
<circle clip-path="url(#clip522)" cx="1302.76" cy="1273.59" r="14" fill="#e26f46" fill-rule="evenodd" fill-opacity="1" stroke="#000000" stroke-opacity="1" stroke-width="3.2"/>
<circle clip-path="url(#clip522)" cx="1385.31" cy="1191.12" r="14" fill="#e26f46" fill-rule="evenodd" fill-opacity="1" stroke="#000000" stroke-opacity="1" stroke-width="3.2"/>
<circle clip-path="url(#clip522)" cx="1467.85" cy="1117.91" r="14" fill="#e26f46" fill-rule="evenodd" fill-opacity="1" stroke="#000000" stroke-opacity="1" stroke-width="3.2"/>
<circle clip-path="url(#clip522)" cx="1550.4" cy="981.733" r="14" fill="#e26f46" fill-rule="evenodd" fill-opacity="1" stroke="#000000" stroke-opacity="1" stroke-width="3.2"/>
<circle clip-path="url(#clip522)" cx="1632.95" cy="928.441" r="14" fill="#e26f46" fill-rule="evenodd" fill-opacity="1" stroke="#000000" stroke-opacity="1" stroke-width="3.2"/>
<circle clip-path="url(#clip522)" cx="1715.49" cy="877.197" r="14" fill="#e26f46" fill-rule="evenodd" fill-opacity="1" stroke="#000000" stroke-opacity="1" stroke-width="3.2"/>
<circle clip-path="url(#clip522)" cx="1798.04" cy="790.182" r="14" fill="#e26f46" fill-rule="evenodd" fill-opacity="1" stroke="#000000" stroke-opacity="1" stroke-width="3.2"/>
<circle clip-path="url(#clip522)" cx="1880.59" cy="676.271" r="14" fill="#e26f46" fill-rule="evenodd" fill-opacity="1" stroke="#000000" stroke-opacity="1" stroke-width="3.2"/>
<circle clip-path="url(#clip522)" cx="1963.13" cy="519.728" r="14" fill="#e26f46" fill-rule="evenodd" fill-opacity="1" stroke="#000000" stroke-opacity="1" stroke-width="3.2"/>
<circle clip-path="url(#clip522)" cx="2045.68" cy="392.295" r="14" fill="#e26f46" fill-rule="evenodd" fill-opacity="1" stroke="#000000" stroke-opacity="1" stroke-width="3.2"/>
<circle clip-path="url(#clip522)" cx="2128.23" cy="283.669" r="14" fill="#e26f46" fill-rule="evenodd" fill-opacity="1" stroke="#000000" stroke-opacity="1" stroke-width="3.2"/>
<circle clip-path="url(#clip522)" cx="2210.78" cy="185.892" r="14" fill="#e26f46" fill-rule="evenodd" fill-opacity="1" stroke="#000000" stroke-opacity="1" stroke-width="3.2"/>
<circle clip-path="url(#clip522)" cx="2293.32" cy="86.1282" r="14" fill="#e26f46" fill-rule="evenodd" fill-opacity="1" stroke="#000000" stroke-opacity="1" stroke-width="3.2"/>
<circle clip-path="url(#clip522)" cx="312.198" cy="1352.88" r="14" fill="#3da44d" fill-rule="evenodd" fill-opacity="1" stroke="#000000" stroke-opacity="1" stroke-width="3.2"/>
<circle clip-path="url(#clip522)" cx="394.745" cy="1357.55" r="14" fill="#3da44d" fill-rule="evenodd" fill-opacity="1" stroke="#000000" stroke-opacity="1" stroke-width="3.2"/>
<circle clip-path="url(#clip522)" cx="477.291" cy="1348.97" r="14" fill="#3da44d" fill-rule="evenodd" fill-opacity="1" stroke="#000000" stroke-opacity="1" stroke-width="3.2"/>
<circle clip-path="url(#clip522)" cx="559.838" cy="1365.94" r="14" fill="#3da44d" fill-rule="evenodd" fill-opacity="1" stroke="#000000" stroke-opacity="1" stroke-width="3.2"/>
<circle clip-path="url(#clip522)" cx="642.385" cy="1371.26" r="14" fill="#3da44d" fill-rule="evenodd" fill-opacity="1" stroke="#000000" stroke-opacity="1" stroke-width="3.2"/>
<circle clip-path="url(#clip522)" cx="724.932" cy="1368.81" r="14" fill="#3da44d" fill-rule="evenodd" fill-opacity="1" stroke="#000000" stroke-opacity="1" stroke-width="3.2"/>
<circle clip-path="url(#clip522)" cx="807.479" cy="1349.24" r="14" fill="#3da44d" fill-rule="evenodd" fill-opacity="1" stroke="#000000" stroke-opacity="1" stroke-width="3.2"/>
<circle clip-path="url(#clip522)" cx="890.026" cy="1364.57" r="14" fill="#3da44d" fill-rule="evenodd" fill-opacity="1" stroke="#000000" stroke-opacity="1" stroke-width="3.2"/>
<circle clip-path="url(#clip522)" cx="972.573" cy="1357.04" r="14" fill="#3da44d" fill-rule="evenodd" fill-opacity="1" stroke="#000000" stroke-opacity="1" stroke-width="3.2"/>
<circle clip-path="url(#clip522)" cx="1055.12" cy="1347.7" r="14" fill="#3da44d" fill-rule="evenodd" fill-opacity="1" stroke="#000000" stroke-opacity="1" stroke-width="3.2"/>
<circle clip-path="url(#clip522)" cx="1137.67" cy="1329.78" r="14" fill="#3da44d" fill-rule="evenodd" fill-opacity="1" stroke="#000000" stroke-opacity="1" stroke-width="3.2"/>
<circle clip-path="url(#clip522)" cx="1220.21" cy="1317.67" r="14" fill="#3da44d" fill-rule="evenodd" fill-opacity="1" stroke="#000000" stroke-opacity="1" stroke-width="3.2"/>
<circle clip-path="url(#clip522)" cx="1302.76" cy="1273.29" r="14" fill="#3da44d" fill-rule="evenodd" fill-opacity="1" stroke="#000000" stroke-opacity="1" stroke-width="3.2"/>
<circle clip-path="url(#clip522)" cx="1385.31" cy="1187.32" r="14" fill="#3da44d" fill-rule="evenodd" fill-opacity="1" stroke="#000000" stroke-opacity="1" stroke-width="3.2"/>
<circle clip-path="url(#clip522)" cx="1467.85" cy="1119.24" r="14" fill="#3da44d" fill-rule="evenodd" fill-opacity="1" stroke="#000000" stroke-opacity="1" stroke-width="3.2"/>
<circle clip-path="url(#clip522)" cx="1550.4" cy="981.02" r="14" fill="#3da44d" fill-rule="evenodd" fill-opacity="1" stroke="#000000" stroke-opacity="1" stroke-width="3.2"/>
<circle clip-path="url(#clip522)" cx="1632.95" cy="930.68" r="14" fill="#3da44d" fill-rule="evenodd" fill-opacity="1" stroke="#000000" stroke-opacity="1" stroke-width="3.2"/>
<circle clip-path="url(#clip522)" cx="1715.49" cy="878.681" r="14" fill="#3da44d" fill-rule="evenodd" fill-opacity="1" stroke="#000000" stroke-opacity="1" stroke-width="3.2"/>
<circle clip-path="url(#clip522)" cx="1798.04" cy="788.825" r="14" fill="#3da44d" fill-rule="evenodd" fill-opacity="1" stroke="#000000" stroke-opacity="1" stroke-width="3.2"/>
<circle clip-path="url(#clip522)" cx="1880.59" cy="676.454" r="14" fill="#3da44d" fill-rule="evenodd" fill-opacity="1" stroke="#000000" stroke-opacity="1" stroke-width="3.2"/>
<circle clip-path="url(#clip522)" cx="1963.13" cy="519.748" r="14" fill="#3da44d" fill-rule="evenodd" fill-opacity="1" stroke="#000000" stroke-opacity="1" stroke-width="3.2"/>
<circle clip-path="url(#clip522)" cx="2045.68" cy="392.641" r="14" fill="#3da44d" fill-rule="evenodd" fill-opacity="1" stroke="#000000" stroke-opacity="1" stroke-width="3.2"/>
<circle clip-path="url(#clip522)" cx="2128.23" cy="283.907" r="14" fill="#3da44d" fill-rule="evenodd" fill-opacity="1" stroke="#000000" stroke-opacity="1" stroke-width="3.2"/>
<circle clip-path="url(#clip522)" cx="2210.78" cy="186.096" r="14" fill="#3da44d" fill-rule="evenodd" fill-opacity="1" stroke="#000000" stroke-opacity="1" stroke-width="3.2"/>
<circle clip-path="url(#clip522)" cx="2293.32" cy="85.838" r="14" fill="#3da44d" fill-rule="evenodd" fill-opacity="1" stroke="#000000" stroke-opacity="1" stroke-width="3.2"/>
<circle clip-path="url(#clip522)" cx="312.198" cy="1348.03" r="14" fill="#c271d2" fill-rule="evenodd" fill-opacity="1" stroke="#000000" stroke-opacity="1" stroke-width="3.2"/>
<circle clip-path="url(#clip522)" cx="394.745" cy="1359.14" r="14" fill="#c271d2" fill-rule="evenodd" fill-opacity="1" stroke="#000000" stroke-opacity="1" stroke-width="3.2"/>
<circle clip-path="url(#clip522)" cx="477.291" cy="1341.75" r="14" fill="#c271d2" fill-rule="evenodd" fill-opacity="1" stroke="#000000" stroke-opacity="1" stroke-width="3.2"/>
<circle clip-path="url(#clip522)" cx="559.838" cy="1366.63" r="14" fill="#c271d2" fill-rule="evenodd" fill-opacity="1" stroke="#000000" stroke-opacity="1" stroke-width="3.2"/>
<circle clip-path="url(#clip522)" cx="642.385" cy="1371.82" r="14" fill="#c271d2" fill-rule="evenodd" fill-opacity="1" stroke="#000000" stroke-opacity="1" stroke-width="3.2"/>
<circle clip-path="url(#clip522)" cx="724.932" cy="1370.62" r="14" fill="#c271d2" fill-rule="evenodd" fill-opacity="1" stroke="#000000" stroke-opacity="1" stroke-width="3.2"/>
<circle clip-path="url(#clip522)" cx="807.479" cy="1355.33" r="14" fill="#c271d2" fill-rule="evenodd" fill-opacity="1" stroke="#000000" stroke-opacity="1" stroke-width="3.2"/>
<circle clip-path="url(#clip522)" cx="890.026" cy="1365.02" r="14" fill="#c271d2" fill-rule="evenodd" fill-opacity="1" stroke="#000000" stroke-opacity="1" stroke-width="3.2"/>
<circle clip-path="url(#clip522)" cx="972.573" cy="1358.92" r="14" fill="#c271d2" fill-rule="evenodd" fill-opacity="1" stroke="#000000" stroke-opacity="1" stroke-width="3.2"/>
<circle clip-path="url(#clip522)" cx="1055.12" cy="1351.15" r="14" fill="#c271d2" fill-rule="evenodd" fill-opacity="1" stroke="#000000" stroke-opacity="1" stroke-width="3.2"/>
<circle clip-path="url(#clip522)" cx="1137.67" cy="1328.96" r="14" fill="#c271d2" fill-rule="evenodd" fill-opacity="1" stroke="#000000" stroke-opacity="1" stroke-width="3.2"/>
<circle clip-path="url(#clip522)" cx="1220.21" cy="1318.95" r="14" fill="#c271d2" fill-rule="evenodd" fill-opacity="1" stroke="#000000" stroke-opacity="1" stroke-width="3.2"/>
<circle clip-path="url(#clip522)" cx="1302.76" cy="1273.52" r="14" fill="#c271d2" fill-rule="evenodd" fill-opacity="1" stroke="#000000" stroke-opacity="1" stroke-width="3.2"/>
<circle clip-path="url(#clip522)" cx="1385.31" cy="1184.95" r="14" fill="#c271d2" fill-rule="evenodd" fill-opacity="1" stroke="#000000" stroke-opacity="1" stroke-width="3.2"/>
<circle clip-path="url(#clip522)" cx="1467.85" cy="1120.15" r="14" fill="#c271d2" fill-rule="evenodd" fill-opacity="1" stroke="#000000" stroke-opacity="1" stroke-width="3.2"/>
<circle clip-path="url(#clip522)" cx="1550.4" cy="980.293" r="14" fill="#c271d2" fill-rule="evenodd" fill-opacity="1" stroke="#000000" stroke-opacity="1" stroke-width="3.2"/>
<circle clip-path="url(#clip522)" cx="1632.95" cy="925.874" r="14" fill="#c271d2" fill-rule="evenodd" fill-opacity="1" stroke="#000000" stroke-opacity="1" stroke-width="3.2"/>
<circle clip-path="url(#clip522)" cx="1715.49" cy="874.771" r="14" fill="#c271d2" fill-rule="evenodd" fill-opacity="1" stroke="#000000" stroke-opacity="1" stroke-width="3.2"/>
<circle clip-path="url(#clip522)" cx="1798.04" cy="789.965" r="14" fill="#c271d2" fill-rule="evenodd" fill-opacity="1" stroke="#000000" stroke-opacity="1" stroke-width="3.2"/>
<circle clip-path="url(#clip522)" cx="1880.59" cy="676.3" r="14" fill="#c271d2" fill-rule="evenodd" fill-opacity="1" stroke="#000000" stroke-opacity="1" stroke-width="3.2"/>
<circle clip-path="url(#clip522)" cx="1963.13" cy="519.315" r="14" fill="#c271d2" fill-rule="evenodd" fill-opacity="1" stroke="#000000" stroke-opacity="1" stroke-width="3.2"/>
<circle clip-path="url(#clip522)" cx="2045.68" cy="391.599" r="14" fill="#c271d2" fill-rule="evenodd" fill-opacity="1" stroke="#000000" stroke-opacity="1" stroke-width="3.2"/>
<circle clip-path="url(#clip522)" cx="2128.23" cy="283.609" r="14" fill="#c271d2" fill-rule="evenodd" fill-opacity="1" stroke="#000000" stroke-opacity="1" stroke-width="3.2"/>
<circle clip-path="url(#clip522)" cx="2210.78" cy="185.955" r="14" fill="#c271d2" fill-rule="evenodd" fill-opacity="1" stroke="#000000" stroke-opacity="1" stroke-width="3.2"/>
<circle clip-path="url(#clip522)" cx="2293.32" cy="86.0979" r="14" fill="#c271d2" fill-rule="evenodd" fill-opacity="1" stroke="#000000" stroke-opacity="1" stroke-width="3.2"/>
<path clip-path="url(#clip520)" d="
M1905.61 1365.44 L2282.76 1365.44 L2282.76 1106.24 L1905.61 1106.24  Z
  " fill="#ffffff" fill-rule="evenodd" fill-opacity="1"/>
<polyline clip-path="url(#clip520)" style="stroke:#000000; stroke-linecap:butt; stroke-linejoin:round; stroke-width:4; stroke-opacity:1; fill:none" points="
  1905.61,1365.44 2282.76,1365.44 2282.76,1106.24 1905.61,1106.24 1905.61,1365.44 
  "/>
<circle clip-path="url(#clip520)" cx="1998.94" cy="1158.08" r="23" fill="#009af9" fill-rule="evenodd" fill-opacity="1" stroke="#000000" stroke-opacity="1" stroke-width="5.12"/>
<path clip-path="url(#clip520)" d="M2107.46 1153.42 Q2106.74 1153 2105.88 1152.82 Q2105.05 1152.61 2104.03 1152.61 Q2100.42 1152.61 2098.47 1154.97 Q2096.55 1157.31 2096.55 1161.7 L2096.55 1175.36 L2092.27 1175.36 L2092.27 1149.44 L2096.55 1149.44 L2096.55 1153.46 Q2097.9 1151.1 2100.05 1149.97 Q2102.2 1148.81 2105.28 1148.81 Q2105.72 1148.81 2106.25 1148.88 Q2106.78 1148.93 2107.43 1149.04 L2107.46 1153.42 Z" fill="#000000" fill-rule="evenodd" fill-opacity="1" /><path clip-path="url(#clip520)" d="M2123.71 1162.33 Q2118.54 1162.33 2116.55 1163.51 Q2114.56 1164.69 2114.56 1167.54 Q2114.56 1169.81 2116.04 1171.15 Q2117.55 1172.47 2120.12 1172.47 Q2123.66 1172.47 2125.79 1169.97 Q2127.94 1167.44 2127.94 1163.28 L2127.94 1162.33 L2123.71 1162.33 M2132.2 1160.57 L2132.2 1175.36 L2127.94 1175.36 L2127.94 1171.43 Q2126.48 1173.79 2124.31 1174.92 Q2122.13 1176.03 2118.98 1176.03 Q2115 1176.03 2112.64 1173.81 Q2110.3 1171.57 2110.3 1167.82 Q2110.3 1163.44 2113.22 1161.22 Q2116.16 1159 2121.97 1159 L2127.94 1159 L2127.94 1158.58 Q2127.94 1155.64 2126 1154.04 Q2124.08 1152.42 2120.58 1152.42 Q2118.36 1152.42 2116.25 1152.95 Q2114.15 1153.49 2112.2 1154.55 L2112.2 1150.62 Q2114.54 1149.71 2116.74 1149.27 Q2118.94 1148.81 2121.02 1148.81 Q2126.65 1148.81 2129.42 1151.73 Q2132.2 1154.64 2132.2 1160.57 Z" fill="#000000" fill-rule="evenodd" fill-opacity="1" /><path clip-path="url(#clip520)" d="M2162.53 1159.71 L2162.53 1175.36 L2158.27 1175.36 L2158.27 1159.85 Q2158.27 1156.17 2156.83 1154.34 Q2155.4 1152.51 2152.53 1152.51 Q2149.08 1152.51 2147.09 1154.71 Q2145.09 1156.91 2145.09 1160.71 L2145.09 1175.36 L2140.81 1175.36 L2140.81 1149.44 L2145.09 1149.44 L2145.09 1153.46 Q2146.62 1151.13 2148.68 1149.97 Q2150.77 1148.81 2153.47 1148.81 Q2157.94 1148.81 2160.23 1151.59 Q2162.53 1154.34 2162.53 1159.71 Z" fill="#000000" fill-rule="evenodd" fill-opacity="1" /><path clip-path="url(#clip520)" d="M2170.86 1139.34 L2175.14 1139.34 L2175.14 1160.62 L2187.85 1149.44 L2193.29 1149.44 L2179.54 1161.57 L2193.87 1175.36 L2188.31 1175.36 L2175.14 1162.7 L2175.14 1175.36 L2170.86 1175.36 L2170.86 1139.34 Z" fill="#000000" fill-rule="evenodd" fill-opacity="1" /><path clip-path="url(#clip520)" d="M2224.15 1143.88 Q2220.53 1143.88 2218.71 1147.45 Q2216.9 1150.99 2216.9 1158.12 Q2216.9 1165.22 2218.71 1168.79 Q2220.53 1172.33 2224.15 1172.33 Q2227.78 1172.33 2229.59 1168.79 Q2231.41 1165.22 2231.41 1158.12 Q2231.41 1150.99 2229.59 1147.45 Q2227.78 1143.88 2224.15 1143.88 M2224.15 1140.18 Q2229.96 1140.18 2233.01 1144.78 Q2236.09 1149.37 2236.09 1158.12 Q2236.09 1166.84 2233.01 1171.45 Q2229.96 1176.03 2224.15 1176.03 Q2218.34 1176.03 2215.26 1171.45 Q2212.2 1166.84 2212.2 1158.12 Q2212.2 1149.37 2215.26 1144.78 Q2218.34 1140.18 2224.15 1140.18 Z" fill="#000000" fill-rule="evenodd" fill-opacity="1" /><circle clip-path="url(#clip520)" cx="1998.94" cy="1209.92" r="23" fill="#e26f46" fill-rule="evenodd" fill-opacity="1" stroke="#000000" stroke-opacity="1" stroke-width="5.12"/>
<path clip-path="url(#clip520)" d="M2107.46 1205.26 Q2106.74 1204.84 2105.88 1204.66 Q2105.05 1204.45 2104.03 1204.45 Q2100.42 1204.45 2098.47 1206.81 Q2096.55 1209.15 2096.55 1213.54 L2096.55 1227.2 L2092.27 1227.2 L2092.27 1201.28 L2096.55 1201.28 L2096.55 1205.3 Q2097.9 1202.94 2100.05 1201.81 Q2102.2 1200.65 2105.28 1200.65 Q2105.72 1200.65 2106.25 1200.72 Q2106.78 1200.77 2107.43 1200.88 L2107.46 1205.26 Z" fill="#000000" fill-rule="evenodd" fill-opacity="1" /><path clip-path="url(#clip520)" d="M2123.71 1214.17 Q2118.54 1214.17 2116.55 1215.35 Q2114.56 1216.53 2114.56 1219.38 Q2114.56 1221.65 2116.04 1222.99 Q2117.55 1224.31 2120.12 1224.31 Q2123.66 1224.31 2125.79 1221.81 Q2127.94 1219.28 2127.94 1215.12 L2127.94 1214.17 L2123.71 1214.17 M2132.2 1212.41 L2132.2 1227.2 L2127.94 1227.2 L2127.94 1223.27 Q2126.48 1225.63 2124.31 1226.76 Q2122.13 1227.87 2118.98 1227.87 Q2115 1227.87 2112.64 1225.65 Q2110.3 1223.41 2110.3 1219.66 Q2110.3 1215.28 2113.22 1213.06 Q2116.16 1210.84 2121.97 1210.84 L2127.94 1210.84 L2127.94 1210.42 Q2127.94 1207.48 2126 1205.88 Q2124.08 1204.26 2120.58 1204.26 Q2118.36 1204.26 2116.25 1204.79 Q2114.15 1205.33 2112.2 1206.39 L2112.2 1202.46 Q2114.54 1201.55 2116.74 1201.11 Q2118.94 1200.65 2121.02 1200.65 Q2126.65 1200.65 2129.42 1203.57 Q2132.2 1206.48 2132.2 1212.41 Z" fill="#000000" fill-rule="evenodd" fill-opacity="1" /><path clip-path="url(#clip520)" d="M2162.53 1211.55 L2162.53 1227.2 L2158.27 1227.2 L2158.27 1211.69 Q2158.27 1208.01 2156.83 1206.18 Q2155.4 1204.35 2152.53 1204.35 Q2149.08 1204.35 2147.09 1206.55 Q2145.09 1208.75 2145.09 1212.55 L2145.09 1227.2 L2140.81 1227.2 L2140.81 1201.28 L2145.09 1201.28 L2145.09 1205.3 Q2146.62 1202.97 2148.68 1201.81 Q2150.77 1200.65 2153.47 1200.65 Q2157.94 1200.65 2160.23 1203.43 Q2162.53 1206.18 2162.53 1211.55 Z" fill="#000000" fill-rule="evenodd" fill-opacity="1" /><path clip-path="url(#clip520)" d="M2170.86 1191.18 L2175.14 1191.18 L2175.14 1212.46 L2187.85 1201.28 L2193.29 1201.28 L2179.54 1213.41 L2193.87 1227.2 L2188.31 1227.2 L2175.14 1214.54 L2175.14 1227.2 L2170.86 1227.2 L2170.86 1191.18 Z" fill="#000000" fill-rule="evenodd" fill-opacity="1" /><path clip-path="url(#clip520)" d="M2214.96 1223.27 L2222.59 1223.27 L2222.59 1196.9 L2214.28 1198.57 L2214.28 1194.31 L2222.55 1192.64 L2227.22 1192.64 L2227.22 1223.27 L2234.86 1223.27 L2234.86 1227.2 L2214.96 1227.2 L2214.96 1223.27 Z" fill="#000000" fill-rule="evenodd" fill-opacity="1" /><circle clip-path="url(#clip520)" cx="1998.94" cy="1261.76" r="23" fill="#3da44d" fill-rule="evenodd" fill-opacity="1" stroke="#000000" stroke-opacity="1" stroke-width="5.12"/>
<path clip-path="url(#clip520)" d="M2107.46 1257.1 Q2106.74 1256.68 2105.88 1256.5 Q2105.05 1256.29 2104.03 1256.29 Q2100.42 1256.29 2098.47 1258.65 Q2096.55 1260.99 2096.55 1265.38 L2096.55 1279.04 L2092.27 1279.04 L2092.27 1253.12 L2096.55 1253.12 L2096.55 1257.14 Q2097.9 1254.78 2100.05 1253.65 Q2102.2 1252.49 2105.28 1252.49 Q2105.72 1252.49 2106.25 1252.56 Q2106.78 1252.61 2107.43 1252.72 L2107.46 1257.1 Z" fill="#000000" fill-rule="evenodd" fill-opacity="1" /><path clip-path="url(#clip520)" d="M2123.71 1266.01 Q2118.54 1266.01 2116.55 1267.19 Q2114.56 1268.37 2114.56 1271.22 Q2114.56 1273.49 2116.04 1274.83 Q2117.55 1276.15 2120.12 1276.15 Q2123.66 1276.15 2125.79 1273.65 Q2127.94 1271.12 2127.94 1266.96 L2127.94 1266.01 L2123.71 1266.01 M2132.2 1264.25 L2132.2 1279.04 L2127.94 1279.04 L2127.94 1275.11 Q2126.48 1277.47 2124.31 1278.6 Q2122.13 1279.71 2118.98 1279.71 Q2115 1279.71 2112.64 1277.49 Q2110.3 1275.25 2110.3 1271.5 Q2110.3 1267.12 2113.22 1264.9 Q2116.16 1262.68 2121.97 1262.68 L2127.94 1262.68 L2127.94 1262.26 Q2127.94 1259.32 2126 1257.72 Q2124.08 1256.1 2120.58 1256.1 Q2118.36 1256.1 2116.25 1256.63 Q2114.15 1257.17 2112.2 1258.23 L2112.2 1254.3 Q2114.54 1253.39 2116.74 1252.95 Q2118.94 1252.49 2121.02 1252.49 Q2126.65 1252.49 2129.42 1255.41 Q2132.2 1258.32 2132.2 1264.25 Z" fill="#000000" fill-rule="evenodd" fill-opacity="1" /><path clip-path="url(#clip520)" d="M2162.53 1263.39 L2162.53 1279.04 L2158.27 1279.04 L2158.27 1263.53 Q2158.27 1259.85 2156.83 1258.02 Q2155.4 1256.19 2152.53 1256.19 Q2149.08 1256.19 2147.09 1258.39 Q2145.09 1260.59 2145.09 1264.39 L2145.09 1279.04 L2140.81 1279.04 L2140.81 1253.12 L2145.09 1253.12 L2145.09 1257.14 Q2146.62 1254.81 2148.68 1253.65 Q2150.77 1252.49 2153.47 1252.49 Q2157.94 1252.49 2160.23 1255.27 Q2162.53 1258.02 2162.53 1263.39 Z" fill="#000000" fill-rule="evenodd" fill-opacity="1" /><path clip-path="url(#clip520)" d="M2170.86 1243.02 L2175.14 1243.02 L2175.14 1264.3 L2187.85 1253.12 L2193.29 1253.12 L2179.54 1265.25 L2193.87 1279.04 L2188.31 1279.04 L2175.14 1266.38 L2175.14 1279.04 L2170.86 1279.04 L2170.86 1243.02 Z" fill="#000000" fill-rule="evenodd" fill-opacity="1" /><path clip-path="url(#clip520)" d="M2218.17 1275.11 L2234.49 1275.11 L2234.49 1279.04 L2212.55 1279.04 L2212.55 1275.11 Q2215.21 1272.35 2219.79 1267.72 Q2224.4 1263.07 2225.58 1261.73 Q2227.83 1259.2 2228.71 1257.47 Q2229.61 1255.71 2229.61 1254.02 Q2229.61 1251.26 2227.66 1249.53 Q2225.74 1247.79 2222.64 1247.79 Q2220.44 1247.79 2217.99 1248.56 Q2215.56 1249.32 2212.78 1250.87 L2212.78 1246.15 Q2215.6 1245.01 2218.06 1244.44 Q2220.51 1243.86 2222.55 1243.86 Q2227.92 1243.86 2231.11 1246.54 Q2234.31 1249.23 2234.31 1253.72 Q2234.31 1255.85 2233.5 1257.77 Q2232.71 1259.67 2230.6 1262.26 Q2230.02 1262.93 2226.92 1266.15 Q2223.82 1269.34 2218.17 1275.11 Z" fill="#000000" fill-rule="evenodd" fill-opacity="1" /><circle clip-path="url(#clip520)" cx="1998.94" cy="1313.6" r="23" fill="#c271d2" fill-rule="evenodd" fill-opacity="1" stroke="#000000" stroke-opacity="1" stroke-width="5.12"/>
<path clip-path="url(#clip520)" d="M2107.46 1308.94 Q2106.74 1308.52 2105.88 1308.34 Q2105.05 1308.13 2104.03 1308.13 Q2100.42 1308.13 2098.47 1310.49 Q2096.55 1312.83 2096.55 1317.22 L2096.55 1330.88 L2092.27 1330.88 L2092.27 1304.96 L2096.55 1304.96 L2096.55 1308.98 Q2097.9 1306.62 2100.05 1305.49 Q2102.2 1304.33 2105.28 1304.33 Q2105.72 1304.33 2106.25 1304.4 Q2106.78 1304.45 2107.43 1304.56 L2107.46 1308.94 Z" fill="#000000" fill-rule="evenodd" fill-opacity="1" /><path clip-path="url(#clip520)" d="M2123.71 1317.85 Q2118.54 1317.85 2116.55 1319.03 Q2114.56 1320.21 2114.56 1323.06 Q2114.56 1325.33 2116.04 1326.67 Q2117.55 1327.99 2120.12 1327.99 Q2123.66 1327.99 2125.79 1325.49 Q2127.94 1322.96 2127.94 1318.8 L2127.94 1317.85 L2123.71 1317.85 M2132.2 1316.09 L2132.2 1330.88 L2127.94 1330.88 L2127.94 1326.95 Q2126.48 1329.31 2124.31 1330.44 Q2122.13 1331.55 2118.98 1331.55 Q2115 1331.55 2112.64 1329.33 Q2110.3 1327.09 2110.3 1323.34 Q2110.3 1318.96 2113.22 1316.74 Q2116.16 1314.52 2121.97 1314.52 L2127.94 1314.52 L2127.94 1314.1 Q2127.94 1311.16 2126 1309.56 Q2124.08 1307.94 2120.58 1307.94 Q2118.36 1307.94 2116.25 1308.47 Q2114.15 1309.01 2112.2 1310.07 L2112.2 1306.14 Q2114.54 1305.23 2116.74 1304.79 Q2118.94 1304.33 2121.02 1304.33 Q2126.65 1304.33 2129.42 1307.25 Q2132.2 1310.16 2132.2 1316.09 Z" fill="#000000" fill-rule="evenodd" fill-opacity="1" /><path clip-path="url(#clip520)" d="M2162.53 1315.23 L2162.53 1330.88 L2158.27 1330.88 L2158.27 1315.37 Q2158.27 1311.69 2156.83 1309.86 Q2155.4 1308.03 2152.53 1308.03 Q2149.08 1308.03 2147.09 1310.23 Q2145.09 1312.43 2145.09 1316.23 L2145.09 1330.88 L2140.81 1330.88 L2140.81 1304.96 L2145.09 1304.96 L2145.09 1308.98 Q2146.62 1306.65 2148.68 1305.49 Q2150.77 1304.33 2153.47 1304.33 Q2157.94 1304.33 2160.23 1307.11 Q2162.53 1309.86 2162.53 1315.23 Z" fill="#000000" fill-rule="evenodd" fill-opacity="1" /><path clip-path="url(#clip520)" d="M2170.86 1294.86 L2175.14 1294.86 L2175.14 1316.14 L2187.85 1304.96 L2193.29 1304.96 L2179.54 1317.09 L2193.87 1330.88 L2188.31 1330.88 L2175.14 1318.22 L2175.14 1330.88 L2170.86 1330.88 L2170.86 1294.86 Z" fill="#000000" fill-rule="evenodd" fill-opacity="1" /><path clip-path="url(#clip520)" d="M2228.31 1312.25 Q2231.67 1312.96 2233.54 1315.23 Q2235.44 1317.5 2235.44 1320.84 Q2235.44 1325.95 2231.92 1328.75 Q2228.4 1331.55 2221.92 1331.55 Q2219.75 1331.55 2217.43 1331.11 Q2215.14 1330.7 2212.69 1329.84 L2212.69 1325.33 Q2214.63 1326.46 2216.95 1327.04 Q2219.26 1327.62 2221.78 1327.62 Q2226.18 1327.62 2228.47 1325.88 Q2230.79 1324.15 2230.79 1320.84 Q2230.79 1317.78 2228.64 1316.07 Q2226.51 1314.33 2222.69 1314.33 L2218.66 1314.33 L2218.66 1310.49 L2222.87 1310.49 Q2226.32 1310.49 2228.15 1309.12 Q2229.98 1307.73 2229.98 1305.14 Q2229.98 1302.48 2228.08 1301.07 Q2226.21 1299.63 2222.69 1299.63 Q2220.77 1299.63 2218.57 1300.05 Q2216.37 1300.47 2213.73 1301.34 L2213.73 1297.18 Q2216.39 1296.44 2218.71 1296.07 Q2221.04 1295.7 2223.1 1295.7 Q2228.43 1295.7 2231.53 1298.13 Q2234.63 1300.53 2234.63 1304.65 Q2234.63 1307.53 2232.99 1309.52 Q2231.34 1311.48 2228.31 1312.25 Z" fill="#000000" fill-rule="evenodd" fill-opacity="1" /></svg>
